solid OpenSCAD_Model
  facet normal 0.9709418174260521 0.23931566428755774 -1.1940494315753509e-18
    outer loop
      vertex 3.9 0 15
      vertex 3.4532785000475186 1.8124203709706974 0
      vertex 3.4532785000475186 1.8124203709706974 15
    endloop
  endfacet
  facet normal 0.9709418174260521 0.23931566428755774 -1.1940494315753509e-18
    outer loop
      vertex 3.4532785000475186 1.8124203709706974 0
      vertex 3.9 0 15
      vertex 3.9 0 0
    endloop
  endfacet
  facet normal 0.748510748171101 0.6631226582407954 3.727431543262371e-18
    outer loop
      vertex 3.4532785000475186 1.8124203709706974 15
      vertex 2.215452512251507 3.2096370769852602 0
      vertex 2.215452512251507 3.2096370769852602 15
    endloop
  endfacet
  facet normal 0.748510748171101 0.6631226582407954 3.727431543262371e-18
    outer loop
      vertex 2.215452512251507 3.2096370769852602 0
      vertex 3.4532785000475186 1.8124203709706974 15
      vertex 3.4532785000475186 1.8124203709706974 0
    endloop
  endfacet
  facet normal 0.3546048870425355 0.9350162426854147 0
    outer loop
      vertex 2.215452512251507 3.2096370769852602 0
      vertex 0.47009305299575965 3.8715646089824105 15
      vertex 2.215452512251507 3.2096370769852602 15
    endloop
  endfacet
  facet normal 0.3546048870425355 0.9350162426854147 0
    outer loop
      vertex 0.47009305299575965 3.8715646089824105 15
      vertex 2.215452512251507 3.2096370769852602 0
      vertex 0.47009305299575965 3.8715646089824105 0
    endloop
  endfacet
  facet normal -0.12053668025532305 0.992708874098054 0
    outer loop
      vertex 0.47009305299575965 3.8715646089824105 0
      vertex -1.3829590594658892 3.6465633464731178 15
      vertex 0.47009305299575965 3.8715646089824105 15
    endloop
  endfacet
  facet normal -0.12053668025532305 0.992708874098054 0
    outer loop
      vertex -1.3829590594658892 3.6465633464731178 15
      vertex 0.47009305299575965 3.8715646089824105 0
      vertex -1.3829590594658892 3.6465633464731178 0
    endloop
  endfacet
  facet normal -0.5680647467311558 0.8229838658936564 0
    outer loop
      vertex -1.3829590594658892 3.6465633464731178 0
      vertex -2.919191917867294 2.5861783671391017 15
      vertex -1.3829590594658892 3.6465633464731178 15
    endloop
  endfacet
  facet normal -0.5680647467311558 0.8229838658936564 0
    outer loop
      vertex -2.919191917867294 2.5861783671391017 15
      vertex -1.3829590594658892 3.6465633464731178 0
      vertex -2.919191917867294 2.5861783671391017 0
    endloop
  endfacet
  facet normal -0.8854560256532099 0.46472317204376856 -2.0710842060085204e-18
    outer loop
      vertex -3.786673087961603 0.9333310907214747 0
      vertex -2.919191917867294 2.5861783671391017 15
      vertex -2.919191917867294 2.5861783671391017 0
    endloop
  endfacet
  facet normal -0.8854560256532099 0.46472317204376856 -2.0710842060085204e-18
    outer loop
      vertex -2.919191917867294 2.5861783671391017 15
      vertex -3.786673087961603 0.9333310907214747 0
      vertex -3.786673087961603 0.9333310907214747 15
    endloop
  endfacet
  facet normal -1 0 0
    outer loop
      vertex -3.786673087961603 -0.9333310907214747 0
      vertex -3.786673087961603 0.9333310907214747 15
      vertex -3.786673087961603 0.9333310907214747 0
    endloop
  endfacet
  facet normal -1 0 0
    outer loop
      vertex -3.786673087961603 0.9333310907214747 15
      vertex -3.786673087961603 -0.9333310907214747 0
      vertex -3.786673087961603 -0.9333310907214747 15
    endloop
  endfacet
  facet normal -0.8854560256532099 -0.46472317204376856 2.0710842060085204e-18
    outer loop
      vertex -2.919191917867294 -2.5861783671391017 0
      vertex -3.786673087961603 -0.9333310907214747 15
      vertex -3.786673087961603 -0.9333310907214747 0
    endloop
  endfacet
  facet normal -0.8854560256532099 -0.46472317204376856 2.0710842060085204e-18
    outer loop
      vertex -3.786673087961603 -0.9333310907214747 15
      vertex -2.919191917867294 -2.5861783671391017 0
      vertex -2.919191917867294 -2.5861783671391017 15
    endloop
  endfacet
  facet normal -0.5680647467311558 -0.8229838658936564 0
    outer loop
      vertex -2.919191917867294 -2.5861783671391017 0
      vertex -1.3829590594658892 -3.6465633464731178 15
      vertex -2.919191917867294 -2.5861783671391017 15
    endloop
  endfacet
  facet normal -0.5680647467311558 -0.8229838658936564 0
    outer loop
      vertex -1.3829590594658892 -3.6465633464731178 15
      vertex -2.919191917867294 -2.5861783671391017 0
      vertex -1.3829590594658892 -3.6465633464731178 0
    endloop
  endfacet
  facet normal -0.12053668025532334 -0.992708874098054 0
    outer loop
      vertex -1.3829590594658892 -3.6465633464731178 0
      vertex 0.47009305299575876 -3.871564608982411 15
      vertex -1.3829590594658892 -3.6465633464731178 15
    endloop
  endfacet
  facet normal -0.12053668025532334 -0.992708874098054 0
    outer loop
      vertex 0.47009305299575876 -3.871564608982411 15
      vertex -1.3829590594658892 -3.6465633464731178 0
      vertex 0.47009305299575876 -3.871564608982411 0
    endloop
  endfacet
  facet normal 0.35460488704253584 -0.9350162426854147 0
    outer loop
      vertex 0.47009305299575876 -3.871564608982411 0
      vertex 2.2154525122515087 -3.209637076985259 15
      vertex 0.47009305299575876 -3.871564608982411 15
    endloop
  endfacet
  facet normal 0.35460488704253584 -0.9350162426854147 0
    outer loop
      vertex 2.2154525122515087 -3.209637076985259 15
      vertex 0.47009305299575876 -3.871564608982411 0
      vertex 2.2154525122515087 -3.209637076985259 0
    endloop
  endfacet
  facet normal 0.7485107481711013 -0.663122658240795 -2.608896697320126e-18
    outer loop
      vertex 2.2154525122515087 -3.209637076985259 15
      vertex 3.453278500047519 -1.8124203709706965 0
      vertex 3.453278500047519 -1.8124203709706965 15
    endloop
  endfacet
  facet normal 0.7485107481711013 -0.663122658240795 -2.608896697320126e-18
    outer loop
      vertex 3.453278500047519 -1.8124203709706965 0
      vertex 2.2154525122515087 -3.209637076985259 15
      vertex 2.2154525122515087 -3.209637076985259 0
    endloop
  endfacet
  facet normal 0.9709418174260521 -0.2393156642875576 1.894072569063903e-18
    outer loop
      vertex 3.453278500047519 -1.8124203709706965 15
      vertex 3.9 0 0
      vertex 3.9 0 15
    endloop
  endfacet
  facet normal 0.9709418174260521 -0.2393156642875576 1.894072569063903e-18
    outer loop
      vertex 3.9 0 0
      vertex 3.453278500047519 -1.8124203709706965 15
      vertex 3.453278500047519 -1.8124203709706965 0
    endloop
  endfacet
  facet normal 0 0 -1
    outer loop
      vertex 3.453278500047519 -1.8124203709706965 0
      vertex 3.4532785000475186 1.8124203709706974 0
      vertex 3.9 0 0
    endloop
  endfacet
  facet normal 0 0 -1
    outer loop
      vertex 2.2154525122515087 -3.209637076985259 0
      vertex 3.4532785000475186 1.8124203709706974 0
      vertex 3.453278500047519 -1.8124203709706965 0
    endloop
  endfacet
  facet normal 0 0 -1
    outer loop
      vertex 2.2154525122515087 -3.209637076985259 0
      vertex 2.215452512251507 3.2096370769852602 0
      vertex 3.4532785000475186 1.8124203709706974 0
    endloop
  endfacet
  facet normal 0 0 -1
    outer loop
      vertex 0.47009305299575876 -3.871564608982411 0
      vertex 2.215452512251507 3.2096370769852602 0
      vertex 2.2154525122515087 -3.209637076985259 0
    endloop
  endfacet
  facet normal 0 0 -1
    outer loop
      vertex 0.47009305299575876 -3.871564608982411 0
      vertex 0.47009305299575965 3.8715646089824105 0
      vertex 2.215452512251507 3.2096370769852602 0
    endloop
  endfacet
  facet normal 0 0 -1
    outer loop
      vertex -1.3829590594658892 -3.6465633464731178 0
      vertex 0.47009305299575965 3.8715646089824105 0
      vertex 0.47009305299575876 -3.871564608982411 0
    endloop
  endfacet
  facet normal 0 0 -1
    outer loop
      vertex -1.3829590594658892 -3.6465633464731178 0
      vertex -1.3829590594658892 3.6465633464731178 0
      vertex 0.47009305299575965 3.8715646089824105 0
    endloop
  endfacet
  facet normal 0 0 -1
    outer loop
      vertex -2.919191917867294 -2.5861783671391017 0
      vertex -1.3829590594658892 3.6465633464731178 0
      vertex -1.3829590594658892 -3.6465633464731178 0
    endloop
  endfacet
  facet normal 0 0 -1
    outer loop
      vertex -2.919191917867294 -2.5861783671391017 0
      vertex -2.919191917867294 2.5861783671391017 0
      vertex -1.3829590594658892 3.6465633464731178 0
    endloop
  endfacet
  facet normal 0 0 -1
    outer loop
      vertex -3.786673087961603 -0.9333310907214747 0
      vertex -2.919191917867294 2.5861783671391017 0
      vertex -2.919191917867294 -2.5861783671391017 0
    endloop
  endfacet
  facet normal 0 0 -1
    outer loop
      vertex -2.919191917867294 2.5861783671391017 0
      vertex -3.786673087961603 -0.9333310907214747 0
      vertex -3.786673087961603 0.9333310907214747 0
    endloop
  endfacet
  facet normal 0 0 1
    outer loop
      vertex 3.4532785000475186 1.8124203709706974 15
      vertex 3.453278500047519 -1.8124203709706965 15
      vertex 3.9 0 15
    endloop
  endfacet
  facet normal 0 0 1
    outer loop
      vertex 2.215452512251507 3.2096370769852602 15
      vertex 3.453278500047519 -1.8124203709706965 15
      vertex 3.4532785000475186 1.8124203709706974 15
    endloop
  endfacet
  facet normal 0 0 1
    outer loop
      vertex 2.215452512251507 3.2096370769852602 15
      vertex 2.2154525122515087 -3.209637076985259 15
      vertex 3.453278500047519 -1.8124203709706965 15
    endloop
  endfacet
  facet normal 0 0 1
    outer loop
      vertex 0.47009305299575965 3.8715646089824105 15
      vertex 2.2154525122515087 -3.209637076985259 15
      vertex 2.215452512251507 3.2096370769852602 15
    endloop
  endfacet
  facet normal 0 0 1
    outer loop
      vertex 0.47009305299575965 3.8715646089824105 15
      vertex 0.47009305299575876 -3.871564608982411 15
      vertex 2.2154525122515087 -3.209637076985259 15
    endloop
  endfacet
  facet normal 0 0 1
    outer loop
      vertex -1.3829590594658892 3.6465633464731178 15
      vertex 0.47009305299575876 -3.871564608982411 15
      vertex 0.47009305299575965 3.8715646089824105 15
    endloop
  endfacet
  facet normal 0 0 1
    outer loop
      vertex -1.3829590594658892 3.6465633464731178 15
      vertex -1.3829590594658892 -3.6465633464731178 15
      vertex 0.47009305299575876 -3.871564608982411 15
    endloop
  endfacet
  facet normal 0 0 1
    outer loop
      vertex -2.919191917867294 2.5861783671391017 15
      vertex -1.3829590594658892 -3.6465633464731178 15
      vertex -1.3829590594658892 3.6465633464731178 15
    endloop
  endfacet
  facet normal 0 0 1
    outer loop
      vertex -2.919191917867294 2.5861783671391017 15
      vertex -2.919191917867294 -2.5861783671391017 15
      vertex -1.3829590594658892 -3.6465633464731178 15
    endloop
  endfacet
  facet normal 0 0 1
    outer loop
      vertex -3.786673087961603 0.9333310907214747 15
      vertex -2.919191917867294 -2.5861783671391017 15
      vertex -2.919191917867294 2.5861783671391017 15
    endloop
  endfacet
  facet normal 0 0 1
    outer loop
      vertex -2.919191917867294 -2.5861783671391017 15
      vertex -3.786673087961603 0.9333310907214747 15
      vertex -3.786673087961603 -0.9333310907214747 15
    endloop
  endfacet
endsolid OpenSCAD_Model
