solid OpenSCAD_Model
  facet normal 1 0 0
    outer loop
      vertex 598.7999877929688 80 30
      vertex 598.7999877929688 47.94166946411133 15.964292526245117
      vertex 598.7999877929688 80 0
    endloop
  endfacet
  facet normal 1 0 0
    outer loop
      vertex 598.7999877929688 80 30
      vertex 598.7999877929688 47.48012924194336 17.836837768554688
      vertex 598.7999877929688 47.94166946411133 15.964292526245117
    endloop
  endfacet
  facet normal 1 0 0
    outer loop
      vertex 598.7999877929688 80 30
      vertex 598.7999877929688 46.58386993408203 19.544517517089844
      vertex 598.7999877929688 47.48012924194336 17.836837768554688
    endloop
  endfacet
  facet normal 1 0 0
    outer loop
      vertex 598.7999877929688 80 30
      vertex 598.7999877929688 45.30498123168945 20.988086700439453
      vertex 598.7999877929688 46.58386993408203 19.544517517089844
    endloop
  endfacet
  facet normal 1 0 0
    outer loop
      vertex 598.7999877929688 80 30
      vertex 598.7999877929688 43.7177848815918 22.083648681640625
      vertex 598.7999877929688 45.30498123168945 20.988086700439453
    endloop
  endfacet
  facet normal 1 0 0
    outer loop
      vertex 598.7999877929688 80 30
      vertex 598.7999877929688 41.91452407836914 22.767534255981445
      vertex 598.7999877929688 43.7177848815918 22.083648681640625
    endloop
  endfacet
  facet normal 1 0 0
    outer loop
      vertex 598.7999877929688 80 30
      vertex 598.7999877929688 40 23
      vertex 598.7999877929688 41.91452407836914 22.767534255981445
    endloop
  endfacet
  facet normal 1 0 0
    outer loop
      vertex 598.7999877929688 0 30
      vertex 598.7999877929688 40 23
      vertex 598.7999877929688 80 30
    endloop
  endfacet
  facet normal 1 0 0
    outer loop
      vertex 598.7999877929688 32.058326721191406 15.964292526245117
      vertex 598.7999877929688 0 30
      vertex 598.7999877929688 32.058326721191406 14.035706520080566
    endloop
  endfacet
  facet normal 1 0 0
    outer loop
      vertex 598.7999877929688 32.51987075805664 17.836837768554688
      vertex 598.7999877929688 0 30
      vertex 598.7999877929688 32.058326721191406 15.964292526245117
    endloop
  endfacet
  facet normal 1 0 0
    outer loop
      vertex 598.7999877929688 33.41613006591797 19.544517517089844
      vertex 598.7999877929688 0 30
      vertex 598.7999877929688 32.51987075805664 17.836837768554688
    endloop
  endfacet
  facet normal 1 0 0
    outer loop
      vertex 598.7999877929688 34.69501876831055 20.988086700439453
      vertex 598.7999877929688 0 30
      vertex 598.7999877929688 33.41613006591797 19.544517517089844
    endloop
  endfacet
  facet normal 1 0 0
    outer loop
      vertex 598.7999877929688 36.2822151184082 22.083648681640625
      vertex 598.7999877929688 0 30
      vertex 598.7999877929688 34.69501876831055 20.988086700439453
    endloop
  endfacet
  facet normal 1 0 0
    outer loop
      vertex 598.7999877929688 38.085472106933594 22.767534255981445
      vertex 598.7999877929688 0 30
      vertex 598.7999877929688 36.2822151184082 22.083648681640625
    endloop
  endfacet
  facet normal 1 0 0
    outer loop
      vertex 598.7999877929688 40 23
      vertex 598.7999877929688 0 30
      vertex 598.7999877929688 38.085472106933594 22.767534255981445
    endloop
  endfacet
  facet normal 1 0 0
    outer loop
      vertex 598.7999877929688 47.94166946411133 14.035706520080566
      vertex 598.7999877929688 80 0
      vertex 598.7999877929688 47.94166946411133 15.964292526245117
    endloop
  endfacet
  facet normal 1 0 0
    outer loop
      vertex 598.7999877929688 47.48012924194336 12.16316032409668
      vertex 598.7999877929688 80 0
      vertex 598.7999877929688 47.94166946411133 14.035706520080566
    endloop
  endfacet
  facet normal 1 0 0
    outer loop
      vertex 598.7999877929688 46.58386993408203 10.45548152923584
      vertex 598.7999877929688 80 0
      vertex 598.7999877929688 47.48012924194336 12.16316032409668
    endloop
  endfacet
  facet normal 1 0 0
    outer loop
      vertex 598.7999877929688 45.30498123168945 9.011913299560547
      vertex 598.7999877929688 80 0
      vertex 598.7999877929688 46.58386993408203 10.45548152923584
    endloop
  endfacet
  facet normal 1 0 0
    outer loop
      vertex 598.7999877929688 43.7177848815918 7.916351318359375
      vertex 598.7999877929688 80 0
      vertex 598.7999877929688 45.30498123168945 9.011913299560547
    endloop
  endfacet
  facet normal 1 0 0
    outer loop
      vertex 598.7999877929688 41.91452407836914 7.232464790344238
      vertex 598.7999877929688 80 0
      vertex 598.7999877929688 43.7177848815918 7.916351318359375
    endloop
  endfacet
  facet normal 1 0 0
    outer loop
      vertex 598.7999877929688 40 7
      vertex 598.7999877929688 80 0
      vertex 598.7999877929688 41.91452407836914 7.232464790344238
    endloop
  endfacet
  facet normal 1 0 0
    outer loop
      vertex 598.7999877929688 0 0
      vertex 598.7999877929688 40 7
      vertex 598.7999877929688 38.085472106933594 7.232464790344238
    endloop
  endfacet
  facet normal 1 0 0
    outer loop
      vertex 598.7999877929688 0 0
      vertex 598.7999877929688 32.058326721191406 14.035706520080566
      vertex 598.7999877929688 0 30
    endloop
  endfacet
  facet normal 1 0 0
    outer loop
      vertex 598.7999877929688 32.058326721191406 14.035706520080566
      vertex 598.7999877929688 0 0
      vertex 598.7999877929688 32.51987075805664 12.16316032409668
    endloop
  endfacet
  facet normal 1 0 0
    outer loop
      vertex 598.7999877929688 32.51987075805664 12.16316032409668
      vertex 598.7999877929688 0 0
      vertex 598.7999877929688 33.41613006591797 10.45548152923584
    endloop
  endfacet
  facet normal 1 0 0
    outer loop
      vertex 598.7999877929688 33.41613006591797 10.45548152923584
      vertex 598.7999877929688 0 0
      vertex 598.7999877929688 34.69501876831055 9.011913299560547
    endloop
  endfacet
  facet normal 1 0 0
    outer loop
      vertex 598.7999877929688 40 7
      vertex 598.7999877929688 0 0
      vertex 598.7999877929688 80 0
    endloop
  endfacet
  facet normal 1 0 0
    outer loop
      vertex 598.7999877929688 36.2822151184082 7.916351318359375
      vertex 598.7999877929688 0 0
      vertex 598.7999877929688 38.085472106933594 7.232464790344238
    endloop
  endfacet
  facet normal 1 0 0
    outer loop
      vertex 598.7999877929688 34.69501876831055 9.011913299560547
      vertex 598.7999877929688 0 0
      vertex 598.7999877929688 36.2822151184082 7.916351318359375
    endloop
  endfacet
  facet normal 0 0 1
    outer loop
      vertex 0 80 30
      vertex 598.7999877929688 0 30
      vertex 598.7999877929688 80 30
    endloop
  endfacet
  facet normal 0 0 1
    outer loop
      vertex 598.7999877929688 0 30
      vertex 0 80 30
      vertex 0 0 30
    endloop
  endfacet
  facet normal 0 0 -1
    outer loop
      vertex 0 0 0
      vertex 598.7999877929688 80 0
      vertex 598.7999877929688 0 0
    endloop
  endfacet
  facet normal 0 0 -1
    outer loop
      vertex 598.7999877929688 80 0
      vertex 0 0 0
      vertex 0 80 0
    endloop
  endfacet
  facet normal -1 0 0
    outer loop
      vertex 0 80 0
      vertex 0 47.94166946411133 14.035706520080566
      vertex 0 80 30
    endloop
  endfacet
  facet normal -1 0 0
    outer loop
      vertex 0 80 0
      vertex 0 47.48012924194336 12.16316032409668
      vertex 0 47.94166946411133 14.035706520080566
    endloop
  endfacet
  facet normal -1 0 0
    outer loop
      vertex 0 80 0
      vertex 0 46.58386993408203 10.45548152923584
      vertex 0 47.48012924194336 12.16316032409668
    endloop
  endfacet
  facet normal -1 0 0
    outer loop
      vertex 0 80 0
      vertex 0 45.30498123168945 9.011913299560547
      vertex 0 46.58386993408203 10.45548152923584
    endloop
  endfacet
  facet normal -1 0 0
    outer loop
      vertex 0 80 0
      vertex 0 43.7177848815918 7.916351318359375
      vertex 0 45.30498123168945 9.011913299560547
    endloop
  endfacet
  facet normal -1 0 0
    outer loop
      vertex 0 80 0
      vertex 0 41.91452407836914 7.232464790344238
      vertex 0 43.7177848815918 7.916351318359375
    endloop
  endfacet
  facet normal -1 0 0
    outer loop
      vertex 0 80 0
      vertex 0 40 7
      vertex 0 41.91452407836914 7.232464790344238
    endloop
  endfacet
  facet normal -1 0 0
    outer loop
      vertex 0 0 0
      vertex 0 40 7
      vertex 0 80 0
    endloop
  endfacet
  facet normal -1 0 0
    outer loop
      vertex 0 32.058326721191406 14.035706520080566
      vertex 0 0 0
      vertex 0 32.058326721191406 15.964292526245117
    endloop
  endfacet
  facet normal -1 0 0
    outer loop
      vertex 0 32.51987075805664 12.16316032409668
      vertex 0 0 0
      vertex 0 32.058326721191406 14.035706520080566
    endloop
  endfacet
  facet normal -1 0 0
    outer loop
      vertex 0 33.41613006591797 10.45548152923584
      vertex 0 0 0
      vertex 0 32.51987075805664 12.16316032409668
    endloop
  endfacet
  facet normal -1 0 0
    outer loop
      vertex 0 34.69501876831055 9.011913299560547
      vertex 0 0 0
      vertex 0 33.41613006591797 10.45548152923584
    endloop
  endfacet
  facet normal -1 0 0
    outer loop
      vertex 0 36.2822151184082 7.916351318359375
      vertex 0 0 0
      vertex 0 34.69501876831055 9.011913299560547
    endloop
  endfacet
  facet normal -1 0 0
    outer loop
      vertex 0 38.085472106933594 7.232464790344238
      vertex 0 0 0
      vertex 0 36.2822151184082 7.916351318359375
    endloop
  endfacet
  facet normal -1 0 0
    outer loop
      vertex 0 40 7
      vertex 0 0 0
      vertex 0 38.085472106933594 7.232464790344238
    endloop
  endfacet
  facet normal -1 0 0
    outer loop
      vertex 0 47.94166946411133 15.964292526245117
      vertex 0 80 30
      vertex 0 47.94166946411133 14.035706520080566
    endloop
  endfacet
  facet normal -1 0 0
    outer loop
      vertex 0 47.48012924194336 17.836837768554688
      vertex 0 80 30
      vertex 0 47.94166946411133 15.964292526245117
    endloop
  endfacet
  facet normal -1 0 0
    outer loop
      vertex 0 46.58386993408203 19.544517517089844
      vertex 0 80 30
      vertex 0 47.48012924194336 17.836837768554688
    endloop
  endfacet
  facet normal -1 0 0
    outer loop
      vertex 0 45.30498123168945 20.988086700439453
      vertex 0 80 30
      vertex 0 46.58386993408203 19.544517517089844
    endloop
  endfacet
  facet normal -1 0 0
    outer loop
      vertex 0 43.7177848815918 22.083648681640625
      vertex 0 80 30
      vertex 0 45.30498123168945 20.988086700439453
    endloop
  endfacet
  facet normal -1 0 0
    outer loop
      vertex 0 41.91452407836914 22.767534255981445
      vertex 0 80 30
      vertex 0 43.7177848815918 22.083648681640625
    endloop
  endfacet
  facet normal -1 0 0
    outer loop
      vertex 0 40 23
      vertex 0 80 30
      vertex 0 41.91452407836914 22.767534255981445
    endloop
  endfacet
  facet normal -1 0 0
    outer loop
      vertex 0 0 30
      vertex 0 40 23
      vertex 0 38.085472106933594 22.767534255981445
    endloop
  endfacet
  facet normal -1 0 0
    outer loop
      vertex 0 0 30
      vertex 0 32.058326721191406 15.964292526245117
      vertex 0 0 0
    endloop
  endfacet
  facet normal -1 0 0
    outer loop
      vertex 0 32.058326721191406 15.964292526245117
      vertex 0 0 30
      vertex 0 32.51987075805664 17.836837768554688
    endloop
  endfacet
  facet normal -1 0 0
    outer loop
      vertex 0 32.51987075805664 17.836837768554688
      vertex 0 0 30
      vertex 0 33.41613006591797 19.544517517089844
    endloop
  endfacet
  facet normal -1 0 0
    outer loop
      vertex 0 33.41613006591797 19.544517517089844
      vertex 0 0 30
      vertex 0 34.69501876831055 20.988086700439453
    endloop
  endfacet
  facet normal -1 0 0
    outer loop
      vertex 0 40 23
      vertex 0 0 30
      vertex 0 80 30
    endloop
  endfacet
  facet normal -1 0 0
    outer loop
      vertex 0 36.2822151184082 22.083648681640625
      vertex 0 0 30
      vertex 0 38.085472106933594 22.767534255981445
    endloop
  endfacet
  facet normal -1 0 0
    outer loop
      vertex 0 34.69501876831055 20.988086700439453
      vertex 0 0 30
      vertex 0 36.2822151184082 22.083648681640625
    endloop
  endfacet
  facet normal 0 1 0
    outer loop
      vertex 598.7999877929688 80 0
      vertex 0 80 30
      vertex 598.7999877929688 80 30
    endloop
  endfacet
  facet normal 0 1 0
    outer loop
      vertex 0 80 30
      vertex 598.7999877929688 80 0
      vertex 0 80 0
    endloop
  endfacet
  facet normal 0 -1 0
    outer loop
      vertex 0 0 0
      vertex 598.7999877929688 0 30
      vertex 0 0 30
    endloop
  endfacet
  facet normal 0 -1 0
    outer loop
      vertex 598.7999877929688 0 30
      vertex 0 0 0
      vertex 598.7999877929688 0 0
    endloop
  endfacet
  facet normal 0 0.23931534552576447 0.9709418959937222
    outer loop
      vertex 15 40 11
      vertex 45 38.14110565185547 11.458175659179688
      vertex 45 40 11
    endloop
  endfacet
  facet normal 0 0.23931534552576447 0.9709418959937222
    outer loop
      vertex 45 38.14110565185547 11.458175659179688
      vertex 15 40 11
      vertex 15 38.14110565185547 11.458175659179688
    endloop
  endfacet
  facet normal 0 -0.23931534552576447 0.9709418959937222
    outer loop
      vertex 15 41.85889434814453 11.458175659179688
      vertex 45 40 11
      vertex 45 41.85889434814453 11.458175659179688
    endloop
  endfacet
  facet normal 0 -0.23931534552576447 0.9709418959937222
    outer loop
      vertex 45 40 11
      vertex 15 41.85889434814453 11.458175659179688
      vertex 15 40 11
    endloop
  endfacet
  facet normal 0 -0.46472322899808866 -0.8854559957612744
    outer loop
      vertex 15 40.95726013183594 18.883766174316406
      vertex 45 42.652488708496094 17.994041442871094
      vertex 45 40.95726013183594 18.883766174316406
    endloop
  endfacet
  facet normal 0 -0.46472322899808866 -0.8854559957612744
    outer loop
      vertex 45 42.652488708496094 17.994041442871094
      vertex 15 40.95726013183594 18.883766174316406
      vertex 15 42.652488708496094 17.994041442871094
    endloop
  endfacet
  facet normal 0 -0.9350166344567078 0.3546038540248138
    outer loop
      vertex 15 43.291934967041016 12.727740287780762
      vertex 45 43.97083282470703 14.517852783203125
      vertex 15 43.97083282470703 14.517852783203125
    endloop
  endfacet
  facet normal 0 -0.9350166344567078 0.3546038540248138
    outer loop
      vertex 45 43.97083282470703 14.517852783203125
      vertex 15 43.291934967041016 12.727740287780762
      vertex 45 43.291934967041016 12.727740287780762
    endloop
  endfacet
  facet normal 0 0.9927088987326265 -0.12053647737119244
    outer loop
      vertex 45 36.0291633605957 14.517852783203125
      vertex 15 36.25993347167969 16.418418884277344
      vertex 45 36.25993347167969 16.418418884277344
    endloop
  endfacet
  facet normal 0 0.9927088987326265 -0.12053647737119244
    outer loop
      vertex 15 36.25993347167969 16.418418884277344
      vertex 45 36.0291633605957 14.517852783203125
      vertex 15 36.0291633605957 14.517852783203125
    endloop
  endfacet
  facet normal 0 -0.82298286628805 -0.5680661949071655
    outer loop
      vertex 15 43.74006652832031 16.418418884277344
      vertex 45 42.652488708496094 17.994041442871094
      vertex 15 42.652488708496094 17.994041442871094
    endloop
  endfacet
  facet normal 0 -0.82298286628805 -0.5680661949071655
    outer loop
      vertex 45 42.652488708496094 17.994041442871094
      vertex 15 43.74006652832031 16.418418884277344
      vertex 45 43.74006652832031 16.418418884277344
    endloop
  endfacet
  facet normal 0 0.6631230747884196 0.7485103791419008
    outer loop
      vertex 15 38.14110565185547 11.458175659179688
      vertex 45 36.708065032958984 12.727740287780762
      vertex 45 38.14110565185547 11.458175659179688
    endloop
  endfacet
  facet normal 0 0.6631230747884196 0.7485103791419008
    outer loop
      vertex 45 36.708065032958984 12.727740287780762
      vertex 15 38.14110565185547 11.458175659179688
      vertex 15 36.708065032958984 12.727740287780762
    endloop
  endfacet
  facet normal 0 -0.9927091371489525 -0.12053451381650897
    outer loop
      vertex 15 43.97083282470703 14.517852783203125
      vertex 45 43.74006652832031 16.418418884277344
      vertex 15 43.74006652832031 16.418418884277344
    endloop
  endfacet
  facet normal 0 -0.9927091371489525 -0.12053451381650897
    outer loop
      vertex 45 43.74006652832031 16.418418884277344
      vertex 15 43.97083282470703 14.517852783203125
      vertex 45 43.97083282470703 14.517852783203125
    endloop
  endfacet
  facet normal 0 0.46472322899808866 -0.8854559957612744
    outer loop
      vertex 15 37.34750747680664 17.994041442871094
      vertex 45 39.0427360534668 18.883766174316406
      vertex 45 37.34750747680664 17.994041442871094
    endloop
  endfacet
  facet normal 0 0.46472322899808866 -0.8854559957612744
    outer loop
      vertex 45 39.0427360534668 18.883766174316406
      vertex 15 37.34750747680664 17.994041442871094
      vertex 15 39.0427360534668 18.883766174316406
    endloop
  endfacet
  facet normal 0 0.822983797799927 -0.5680648453819412
    outer loop
      vertex 45 36.25993347167969 16.418418884277344
      vertex 15 37.34750747680664 17.994041442871094
      vertex 45 37.34750747680664 17.994041442871094
    endloop
  endfacet
  facet normal 0 0.822983797799927 -0.5680648453819412
    outer loop
      vertex 15 37.34750747680664 17.994041442871094
      vertex 45 36.25993347167969 16.418418884277344
      vertex 15 36.25993347167969 16.418418884277344
    endloop
  endfacet
  facet normal 1 0 0
    outer loop
      vertex 15 43.74006652832031 16.418418884277344
      vertex 15 43.291934967041016 12.727740287780762
      vertex 15 43.97083282470703 14.517852783203125
    endloop
  endfacet
  facet normal 1 0 0
    outer loop
      vertex 15 42.652488708496094 17.994041442871094
      vertex 15 43.291934967041016 12.727740287780762
      vertex 15 43.74006652832031 16.418418884277344
    endloop
  endfacet
  facet normal 1 0 0
    outer loop
      vertex 15 42.652488708496094 17.994041442871094
      vertex 15 41.85889434814453 11.458175659179688
      vertex 15 43.291934967041016 12.727740287780762
    endloop
  endfacet
  facet normal 1 0 0
    outer loop
      vertex 15 40.95726013183594 18.883766174316406
      vertex 15 41.85889434814453 11.458175659179688
      vertex 15 42.652488708496094 17.994041442871094
    endloop
  endfacet
  facet normal 1 0 0
    outer loop
      vertex 15 40.95726013183594 18.883766174316406
      vertex 15 40 11
      vertex 15 41.85889434814453 11.458175659179688
    endloop
  endfacet
  facet normal 1 0 0
    outer loop
      vertex 15 39.0427360534668 18.883766174316406
      vertex 15 40 11
      vertex 15 40.95726013183594 18.883766174316406
    endloop
  endfacet
  facet normal 1 0 0
    outer loop
      vertex 15 39.0427360534668 18.883766174316406
      vertex 15 38.14110565185547 11.458175659179688
      vertex 15 40 11
    endloop
  endfacet
  facet normal 1 0 0
    outer loop
      vertex 15 37.34750747680664 17.994041442871094
      vertex 15 38.14110565185547 11.458175659179688
      vertex 15 39.0427360534668 18.883766174316406
    endloop
  endfacet
  facet normal 1 0 0
    outer loop
      vertex 15 37.34750747680664 17.994041442871094
      vertex 15 36.708065032958984 12.727740287780762
      vertex 15 38.14110565185547 11.458175659179688
    endloop
  endfacet
  facet normal 1 0 0
    outer loop
      vertex 15 36.25993347167969 16.418418884277344
      vertex 15 36.708065032958984 12.727740287780762
      vertex 15 37.34750747680664 17.994041442871094
    endloop
  endfacet
  facet normal 1 0 0
    outer loop
      vertex 15 36.708065032958984 12.727740287780762
      vertex 15 36.25993347167969 16.418418884277344
      vertex 15 36.0291633605957 14.517852783203125
    endloop
  endfacet
  facet normal 0 0.9350159738200934 0.3546055959813134
    outer loop
      vertex 45 36.708065032958984 12.727740287780762
      vertex 15 36.0291633605957 14.517852783203125
      vertex 45 36.0291633605957 14.517852783203125
    endloop
  endfacet
  facet normal 0 0.9350159738200934 0.3546055959813134
    outer loop
      vertex 15 36.0291633605957 14.517852783203125
      vertex 45 36.708065032958984 12.727740287780762
      vertex 15 36.708065032958984 12.727740287780762
    endloop
  endfacet
  facet normal 0 -0.6631230747884196 0.7485103791419008
    outer loop
      vertex 15 43.291934967041016 12.727740287780762
      vertex 45 41.85889434814453 11.458175659179688
      vertex 45 43.291934967041016 12.727740287780762
    endloop
  endfacet
  facet normal 0 -0.6631230747884196 0.7485103791419008
    outer loop
      vertex 45 41.85889434814453 11.458175659179688
      vertex 15 43.291934967041016 12.727740287780762
      vertex 15 41.85889434814453 11.458175659179688
    endloop
  endfacet
  facet normal 0 0 -1
    outer loop
      vertex 15 39.0427360534668 18.883766174316406
      vertex 45 40.95726013183594 18.883766174316406
      vertex 45 39.0427360534668 18.883766174316406
    endloop
  endfacet
  facet normal 0 0 -1
    outer loop
      vertex 45 40.95726013183594 18.883766174316406
      vertex 15 39.0427360534668 18.883766174316406
      vertex 15 40.95726013183594 18.883766174316406
    endloop
  endfacet
  facet normal -1 0 0
    outer loop
      vertex 45 43.291934967041016 12.727740287780762
      vertex 45 43.74006652832031 16.418418884277344
      vertex 45 43.97083282470703 14.517852783203125
    endloop
  endfacet
  facet normal -1 0 0
    outer loop
      vertex 45 43.291934967041016 12.727740287780762
      vertex 45 42.652488708496094 17.994041442871094
      vertex 45 43.74006652832031 16.418418884277344
    endloop
  endfacet
  facet normal -1 0 0
    outer loop
      vertex 45 41.85889434814453 11.458175659179688
      vertex 45 42.652488708496094 17.994041442871094
      vertex 45 43.291934967041016 12.727740287780762
    endloop
  endfacet
  facet normal -1 0 0
    outer loop
      vertex 45 41.85889434814453 11.458175659179688
      vertex 45 40.95726013183594 18.883766174316406
      vertex 45 42.652488708496094 17.994041442871094
    endloop
  endfacet
  facet normal -1 0 0
    outer loop
      vertex 45 40 11
      vertex 45 40.95726013183594 18.883766174316406
      vertex 45 41.85889434814453 11.458175659179688
    endloop
  endfacet
  facet normal -1 0 0
    outer loop
      vertex 45 40 11
      vertex 45 39.0427360534668 18.883766174316406
      vertex 45 40.95726013183594 18.883766174316406
    endloop
  endfacet
  facet normal -1 0 0
    outer loop
      vertex 45 38.14110565185547 11.458175659179688
      vertex 45 39.0427360534668 18.883766174316406
      vertex 45 40 11
    endloop
  endfacet
  facet normal -1 0 0
    outer loop
      vertex 45 38.14110565185547 11.458175659179688
      vertex 45 37.34750747680664 17.994041442871094
      vertex 45 39.0427360534668 18.883766174316406
    endloop
  endfacet
  facet normal -1 0 0
    outer loop
      vertex 45 36.708065032958984 12.727740287780762
      vertex 45 37.34750747680664 17.994041442871094
      vertex 45 38.14110565185547 11.458175659179688
    endloop
  endfacet
  facet normal -1 0 0
    outer loop
      vertex 45 36.708065032958984 12.727740287780762
      vertex 45 36.25993347167969 16.418418884277344
      vertex 45 37.34750747680664 17.994041442871094
    endloop
  endfacet
  facet normal -1 0 0
    outer loop
      vertex 45 36.25993347167969 16.418418884277344
      vertex 45 36.708065032958984 12.727740287780762
      vertex 45 36.0291633605957 14.517852783203125
    endloop
  endfacet
  facet normal 0 0.23931534552576447 0.9709418959937222
    outer loop
      vertex 583.7999877929688 40 11
      vertex 588.7999877929688 38.14110565185547 11.458175659179688
      vertex 588.7999877929688 40 11
    endloop
  endfacet
  facet normal 0 0.23931534552576447 0.9709418959937222
    outer loop
      vertex 588.7999877929688 38.14110565185547 11.458175659179688
      vertex 583.7999877929688 40 11
      vertex 583.7999877929688 38.14110565185547 11.458175659179688
    endloop
  endfacet
  facet normal 0 -0.23931534552576447 0.9709418959937222
    outer loop
      vertex 583.7999877929688 41.85889434814453 11.458175659179688
      vertex 588.7999877929688 40 11
      vertex 588.7999877929688 41.85889434814453 11.458175659179688
    endloop
  endfacet
  facet normal 0 -0.23931534552576447 0.9709418959937222
    outer loop
      vertex 588.7999877929688 40 11
      vertex 583.7999877929688 41.85889434814453 11.458175659179688
      vertex 583.7999877929688 40 11
    endloop
  endfacet
  facet normal 0 -0.46472322899808866 -0.8854559957612744
    outer loop
      vertex 583.7999877929688 40.95726013183594 18.883766174316406
      vertex 588.7999877929688 42.652488708496094 17.994041442871094
      vertex 588.7999877929688 40.95726013183594 18.883766174316406
    endloop
  endfacet
  facet normal 0 -0.46472322899808866 -0.8854559957612744
    outer loop
      vertex 588.7999877929688 42.652488708496094 17.994041442871094
      vertex 583.7999877929688 40.95726013183594 18.883766174316406
      vertex 583.7999877929688 42.652488708496094 17.994041442871094
    endloop
  endfacet
  facet normal 0 -0.9350166344567077 0.3546038540248138
    outer loop
      vertex 583.7999877929688 43.291934967041016 12.727740287780762
      vertex 588.7999877929688 43.97083282470703 14.517852783203125
      vertex 583.7999877929688 43.97083282470703 14.517852783203125
    endloop
  endfacet
  facet normal 0 -0.9350166344567077 0.3546038540248138
    outer loop
      vertex 588.7999877929688 43.97083282470703 14.517852783203125
      vertex 583.7999877929688 43.291934967041016 12.727740287780762
      vertex 588.7999877929688 43.291934967041016 12.727740287780762
    endloop
  endfacet
  facet normal 0 0.9927088987326266 -0.12053647737119244
    outer loop
      vertex 588.7999877929688 36.0291633605957 14.517852783203125
      vertex 583.7999877929688 36.25993347167969 16.418418884277344
      vertex 588.7999877929688 36.25993347167969 16.418418884277344
    endloop
  endfacet
  facet normal 0 0.9927088987326266 -0.12053647737119244
    outer loop
      vertex 583.7999877929688 36.25993347167969 16.418418884277344
      vertex 588.7999877929688 36.0291633605957 14.517852783203125
      vertex 583.7999877929688 36.0291633605957 14.517852783203125
    endloop
  endfacet
  facet normal 0 -0.82298286628805 -0.5680661949071655
    outer loop
      vertex 583.7999877929688 43.74006652832031 16.418418884277344
      vertex 588.7999877929688 42.652488708496094 17.994041442871094
      vertex 583.7999877929688 42.652488708496094 17.994041442871094
    endloop
  endfacet
  facet normal 0 -0.82298286628805 -0.5680661949071655
    outer loop
      vertex 588.7999877929688 42.652488708496094 17.994041442871094
      vertex 583.7999877929688 43.74006652832031 16.418418884277344
      vertex 588.7999877929688 43.74006652832031 16.418418884277344
    endloop
  endfacet
  facet normal 0 0.6631230747884197 0.7485103791419009
    outer loop
      vertex 583.7999877929688 38.14110565185547 11.458175659179688
      vertex 588.7999877929688 36.708065032958984 12.727740287780762
      vertex 588.7999877929688 38.14110565185547 11.458175659179688
    endloop
  endfacet
  facet normal 0 0.6631230747884197 0.7485103791419009
    outer loop
      vertex 588.7999877929688 36.708065032958984 12.727740287780762
      vertex 583.7999877929688 38.14110565185547 11.458175659179688
      vertex 583.7999877929688 36.708065032958984 12.727740287780762
    endloop
  endfacet
  facet normal 0 -0.9927091371489526 -0.12053451381650898
    outer loop
      vertex 583.7999877929688 43.97083282470703 14.517852783203125
      vertex 588.7999877929688 43.74006652832031 16.418418884277344
      vertex 583.7999877929688 43.74006652832031 16.418418884277344
    endloop
  endfacet
  facet normal 0 -0.9927091371489526 -0.12053451381650898
    outer loop
      vertex 588.7999877929688 43.74006652832031 16.418418884277344
      vertex 583.7999877929688 43.97083282470703 14.517852783203125
      vertex 588.7999877929688 43.97083282470703 14.517852783203125
    endloop
  endfacet
  facet normal 0 0.46472322899808866 -0.8854559957612744
    outer loop
      vertex 583.7999877929688 37.34750747680664 17.994041442871094
      vertex 588.7999877929688 39.0427360534668 18.883766174316406
      vertex 588.7999877929688 37.34750747680664 17.994041442871094
    endloop
  endfacet
  facet normal 0 0.46472322899808866 -0.8854559957612744
    outer loop
      vertex 588.7999877929688 39.0427360534668 18.883766174316406
      vertex 583.7999877929688 37.34750747680664 17.994041442871094
      vertex 583.7999877929688 39.0427360534668 18.883766174316406
    endloop
  endfacet
  facet normal 0 0.822983797799927 -0.5680648453819412
    outer loop
      vertex 588.7999877929688 36.25993347167969 16.418418884277344
      vertex 583.7999877929688 37.34750747680664 17.994041442871094
      vertex 588.7999877929688 37.34750747680664 17.994041442871094
    endloop
  endfacet
  facet normal 0 0.822983797799927 -0.5680648453819412
    outer loop
      vertex 583.7999877929688 37.34750747680664 17.994041442871094
      vertex 588.7999877929688 36.25993347167969 16.418418884277344
      vertex 583.7999877929688 36.25993347167969 16.418418884277344
    endloop
  endfacet
  facet normal 1 0 0
    outer loop
      vertex 583.7999877929688 43.74006652832031 16.418418884277344
      vertex 583.7999877929688 43.291934967041016 12.727740287780762
      vertex 583.7999877929688 43.97083282470703 14.517852783203125
    endloop
  endfacet
  facet normal 1 0 0
    outer loop
      vertex 583.7999877929688 42.652488708496094 17.994041442871094
      vertex 583.7999877929688 43.291934967041016 12.727740287780762
      vertex 583.7999877929688 43.74006652832031 16.418418884277344
    endloop
  endfacet
  facet normal 1 0 0
    outer loop
      vertex 583.7999877929688 42.652488708496094 17.994041442871094
      vertex 583.7999877929688 41.85889434814453 11.458175659179688
      vertex 583.7999877929688 43.291934967041016 12.727740287780762
    endloop
  endfacet
  facet normal 1 0 0
    outer loop
      vertex 583.7999877929688 40.95726013183594 18.883766174316406
      vertex 583.7999877929688 41.85889434814453 11.458175659179688
      vertex 583.7999877929688 42.652488708496094 17.994041442871094
    endloop
  endfacet
  facet normal 1 0 0
    outer loop
      vertex 583.7999877929688 40.95726013183594 18.883766174316406
      vertex 583.7999877929688 40 11
      vertex 583.7999877929688 41.85889434814453 11.458175659179688
    endloop
  endfacet
  facet normal 1 0 0
    outer loop
      vertex 583.7999877929688 39.0427360534668 18.883766174316406
      vertex 583.7999877929688 40 11
      vertex 583.7999877929688 40.95726013183594 18.883766174316406
    endloop
  endfacet
  facet normal 1 0 0
    outer loop
      vertex 583.7999877929688 39.0427360534668 18.883766174316406
      vertex 583.7999877929688 38.14110565185547 11.458175659179688
      vertex 583.7999877929688 40 11
    endloop
  endfacet
  facet normal 1 0 0
    outer loop
      vertex 583.7999877929688 37.34750747680664 17.994041442871094
      vertex 583.7999877929688 38.14110565185547 11.458175659179688
      vertex 583.7999877929688 39.0427360534668 18.883766174316406
    endloop
  endfacet
  facet normal 1 0 0
    outer loop
      vertex 583.7999877929688 37.34750747680664 17.994041442871094
      vertex 583.7999877929688 36.708065032958984 12.727740287780762
      vertex 583.7999877929688 38.14110565185547 11.458175659179688
    endloop
  endfacet
  facet normal 1 0 0
    outer loop
      vertex 583.7999877929688 36.25993347167969 16.418418884277344
      vertex 583.7999877929688 36.708065032958984 12.727740287780762
      vertex 583.7999877929688 37.34750747680664 17.994041442871094
    endloop
  endfacet
  facet normal 1 0 0
    outer loop
      vertex 583.7999877929688 36.708065032958984 12.727740287780762
      vertex 583.7999877929688 36.25993347167969 16.418418884277344
      vertex 583.7999877929688 36.0291633605957 14.517852783203125
    endloop
  endfacet
  facet normal 0 0.9350159738200934 0.3546055959813134
    outer loop
      vertex 588.7999877929688 36.708065032958984 12.727740287780762
      vertex 583.7999877929688 36.0291633605957 14.517852783203125
      vertex 588.7999877929688 36.0291633605957 14.517852783203125
    endloop
  endfacet
  facet normal 0 0.9350159738200934 0.3546055959813134
    outer loop
      vertex 583.7999877929688 36.0291633605957 14.517852783203125
      vertex 588.7999877929688 36.708065032958984 12.727740287780762
      vertex 583.7999877929688 36.708065032958984 12.727740287780762
    endloop
  endfacet
  facet normal 0 -0.6631230747884197 0.7485103791419009
    outer loop
      vertex 583.7999877929688 43.291934967041016 12.727740287780762
      vertex 588.7999877929688 41.85889434814453 11.458175659179688
      vertex 588.7999877929688 43.291934967041016 12.727740287780762
    endloop
  endfacet
  facet normal 0 -0.6631230747884197 0.7485103791419009
    outer loop
      vertex 588.7999877929688 41.85889434814453 11.458175659179688
      vertex 583.7999877929688 43.291934967041016 12.727740287780762
      vertex 583.7999877929688 41.85889434814453 11.458175659179688
    endloop
  endfacet
  facet normal 0 0 -1
    outer loop
      vertex 583.7999877929688 39.0427360534668 18.883766174316406
      vertex 588.7999877929688 40.95726013183594 18.883766174316406
      vertex 588.7999877929688 39.0427360534668 18.883766174316406
    endloop
  endfacet
  facet normal 0 0 -1
    outer loop
      vertex 588.7999877929688 40.95726013183594 18.883766174316406
      vertex 583.7999877929688 39.0427360534668 18.883766174316406
      vertex 583.7999877929688 40.95726013183594 18.883766174316406
    endloop
  endfacet
  facet normal 0 -0.12053641445409928 0.9927089063721297
    outer loop
      vertex 0 41.91452407836914 7.232464790344238
      vertex 10 40 7
      vertex 10 41.91452407836914 7.232464790344238
    endloop
  endfacet
  facet normal 0 -0.12053641445409928 0.9927089063721297
    outer loop
      vertex 10 40 7
      vertex 0 41.91452407836914 7.232464790344238
      vertex 0 40 7
    endloop
  endfacet
  facet normal 0 0.5680645512825665 0.8229840008020425
    outer loop
      vertex 0 36.2822151184082 7.916351318359375
      vertex 10 34.69501876831055 9.011913299560547
      vertex 10 36.2822151184082 7.916351318359375
    endloop
  endfacet
  facet normal 0 0.5680645512825665 0.8229840008020425
    outer loop
      vertex 10 34.69501876831055 9.011913299560547
      vertex 0 36.2822151184082 7.916351318359375
      vertex 0 34.69501876831055 9.011913299560547
    endloop
  endfacet
  facet normal 0 -0.7485110446833617 0.6631223235474905
    outer loop
      vertex 0 45.30498123168945 9.011913299560547
      vertex 10 46.58386993408203 10.45548152923584
      vertex 0 46.58386993408203 10.45548152923584
    endloop
  endfacet
  facet normal 0 -0.7485110446833617 0.6631223235474905
    outer loop
      vertex 10 46.58386993408203 10.45548152923584
      vertex 0 45.30498123168945 9.011913299560547
      vertex 10 45.30498123168945 9.011913299560547
    endloop
  endfacet
  facet normal 0 -0.8854559537697829 0.46472330900616987
    outer loop
      vertex 0 46.58386993408203 10.45548152923584
      vertex 10 47.48012924194336 12.16316032409668
      vertex 0 47.48012924194336 12.16316032409668
    endloop
  endfacet
  facet normal 0 -0.8854559537697829 0.46472330900616987
    outer loop
      vertex 10 47.48012924194336 12.16316032409668
      vertex 0 46.58386993408203 10.45548152923584
      vertex 10 46.58386993408203 10.45548152923584
    endloop
  endfacet
  facet normal 0 0.1205361777746751 0.9927089351101217
    outer loop
      vertex 0 40 7
      vertex 10 38.085472106933594 7.232464790344238
      vertex 10 40 7
    endloop
  endfacet
  facet normal 0 0.1205361777746751 0.9927089351101217
    outer loop
      vertex 10 38.085472106933594 7.232464790344238
      vertex 0 40 7
      vertex 0 38.085472106933594 7.232464790344238
    endloop
  endfacet
  facet normal 0 0.7485112621276678 -0.663122078103305
    outer loop
      vertex 10 33.41613006591797 19.544517517089844
      vertex 0 34.69501876831055 20.988086700439453
      vertex 10 34.69501876831055 20.988086700439453
    endloop
  endfacet
  facet normal 0 0.7485112621276678 -0.663122078103305
    outer loop
      vertex 0 34.69501876831055 20.988086700439453
      vertex 10 33.41613006591797 19.544517517089844
      vertex 0 33.41613006591797 19.544517517089844
    endloop
  endfacet
  facet normal 0 -0.5680645512825665 -0.8229840008020425
    outer loop
      vertex 0 43.7177848815918 22.083648681640625
      vertex 10 45.30498123168945 20.988086700439453
      vertex 10 43.7177848815918 22.083648681640625
    endloop
  endfacet
  facet normal 0 -0.5680645512825665 -0.8229840008020425
    outer loop
      vertex 10 45.30498123168945 20.988086700439453
      vertex 0 43.7177848815918 22.083648681640625
      vertex 0 45.30498123168945 20.988086700439453
    endloop
  endfacet
  facet normal 0 0.35460550330846974 0.9350160089663421
    outer loop
      vertex 0 38.085472106933594 7.232464790344238
      vertex 10 36.2822151184082 7.916351318359375
      vertex 10 38.085472106933594 7.232464790344238
    endloop
  endfacet
  facet normal 0 0.35460550330846974 0.9350160089663421
    outer loop
      vertex 10 36.2822151184082 7.916351318359375
      vertex 0 38.085472106933594 7.232464790344238
      vertex 0 36.2822151184082 7.916351318359375
    endloop
  endfacet
  facet normal 0 0.9709414454812132 -0.23931717332204222
    outer loop
      vertex 10 32.058326721191406 15.964292526245117
      vertex 0 32.51987075805664 17.836837768554688
      vertex 10 32.51987075805664 17.836837768554688
    endloop
  endfacet
  facet normal 0 0.9709414454812132 -0.23931717332204222
    outer loop
      vertex 0 32.51987075805664 17.836837768554688
      vertex 10 32.058326721191406 15.964292526245117
      vertex 0 32.058326721191406 15.964292526245117
    endloop
  endfacet
  facet normal 0 0.9709414738021896 0.23931705842006312
    outer loop
      vertex 10 32.51987075805664 12.16316032409668
      vertex 0 32.058326721191406 14.035706520080566
      vertex 10 32.058326721191406 14.035706520080566
    endloop
  endfacet
  facet normal 0 0.9709414738021896 0.23931705842006312
    outer loop
      vertex 0 32.058326721191406 14.035706520080566
      vertex 10 32.51987075805664 12.16316032409668
      vertex 0 32.51987075805664 12.16316032409668
    endloop
  endfacet
  facet normal 0 -0.5680645512825665 0.8229840008020425
    outer loop
      vertex 0 45.30498123168945 9.011913299560547
      vertex 10 43.7177848815918 7.916351318359375
      vertex 10 45.30498123168945 9.011913299560547
    endloop
  endfacet
  facet normal 0 -0.5680645512825665 0.8229840008020425
    outer loop
      vertex 10 43.7177848815918 7.916351318359375
      vertex 0 45.30498123168945 9.011913299560547
      vertex 0 43.7177848815918 7.916351318359375
    endloop
  endfacet
  facet normal 0 -0.9709419334083189 0.23931519372851232
    outer loop
      vertex 0 47.48012924194336 12.16316032409668
      vertex 10 47.94166946411133 14.035706520080566
      vertex 0 47.94166946411133 14.035706520080566
    endloop
  endfacet
  facet normal 0 -0.9709419334083189 0.23931519372851232
    outer loop
      vertex 10 47.94166946411133 14.035706520080566
      vertex 0 47.48012924194336 12.16316032409668
      vertex 10 47.48012924194336 12.16316032409668
    endloop
  endfacet
  facet normal 0 0.5680645512825665 -0.8229840008020425
    outer loop
      vertex 0 34.69501876831055 20.988086700439453
      vertex 10 36.2822151184082 22.083648681640625
      vertex 10 34.69501876831055 20.988086700439453
    endloop
  endfacet
  facet normal 0 0.5680645512825665 -0.8229840008020425
    outer loop
      vertex 10 36.2822151184082 22.083648681640625
      vertex 0 34.69501876831055 20.988086700439453
      vertex 0 36.2822151184082 22.083648681640625
    endloop
  endfacet
  facet normal 0 1 0
    outer loop
      vertex 10 32.058326721191406 14.035706520080566
      vertex 0 32.058326721191406 15.964292526245117
      vertex 10 32.058326721191406 15.964292526245117
    endloop
  endfacet
  facet normal 0 1 0
    outer loop
      vertex 0 32.058326721191406 15.964292526245117
      vertex 10 32.058326721191406 14.035706520080566
      vertex 0 32.058326721191406 14.035706520080566
    endloop
  endfacet
  facet normal 0 -0.9709419050877705 -0.23931530862970493
    outer loop
      vertex 0 47.94166946411133 15.964292526245117
      vertex 10 47.48012924194336 17.836837768554688
      vertex 0 47.48012924194336 17.836837768554688
    endloop
  endfacet
  facet normal 0 -0.9709419050877705 -0.23931530862970493
    outer loop
      vertex 10 47.48012924194336 17.836837768554688
      vertex 0 47.94166946411133 15.964292526245117
      vertex 10 47.94166946411133 15.964292526245117
    endloop
  endfacet
  facet normal -1 0 0
    outer loop
      vertex 10 47.48012924194336 12.16316032409668
      vertex 10 47.94166946411133 15.964292526245117
      vertex 10 47.94166946411133 14.035706520080566
    endloop
  endfacet
  facet normal -1 0 0
    outer loop
      vertex 10 47.48012924194336 12.16316032409668
      vertex 10 47.48012924194336 17.836837768554688
      vertex 10 47.94166946411133 15.964292526245117
    endloop
  endfacet
  facet normal -1 0 0
    outer loop
      vertex 10 46.58386993408203 10.45548152923584
      vertex 10 47.48012924194336 17.836837768554688
      vertex 10 47.48012924194336 12.16316032409668
    endloop
  endfacet
  facet normal -1 0 0
    outer loop
      vertex 10 46.58386993408203 10.45548152923584
      vertex 10 46.58386993408203 19.544517517089844
      vertex 10 47.48012924194336 17.836837768554688
    endloop
  endfacet
  facet normal -1 0 0
    outer loop
      vertex 10 45.30498123168945 9.011913299560547
      vertex 10 46.58386993408203 19.544517517089844
      vertex 10 46.58386993408203 10.45548152923584
    endloop
  endfacet
  facet normal -1 0 0
    outer loop
      vertex 10 45.30498123168945 9.011913299560547
      vertex 10 45.30498123168945 20.988086700439453
      vertex 10 46.58386993408203 19.544517517089844
    endloop
  endfacet
  facet normal -1 0 0
    outer loop
      vertex 10 43.7177848815918 7.916351318359375
      vertex 10 45.30498123168945 20.988086700439453
      vertex 10 45.30498123168945 9.011913299560547
    endloop
  endfacet
  facet normal -1 0 0
    outer loop
      vertex 10 43.7177848815918 7.916351318359375
      vertex 10 43.7177848815918 22.083648681640625
      vertex 10 45.30498123168945 20.988086700439453
    endloop
  endfacet
  facet normal -1 0 0
    outer loop
      vertex 10 41.91452407836914 7.232464790344238
      vertex 10 43.7177848815918 22.083648681640625
      vertex 10 43.7177848815918 7.916351318359375
    endloop
  endfacet
  facet normal -1 0 0
    outer loop
      vertex 10 41.91452407836914 7.232464790344238
      vertex 10 41.91452407836914 22.767534255981445
      vertex 10 43.7177848815918 22.083648681640625
    endloop
  endfacet
  facet normal -1 0 0
    outer loop
      vertex 10 40 7
      vertex 10 41.91452407836914 22.767534255981445
      vertex 10 41.91452407836914 7.232464790344238
    endloop
  endfacet
  facet normal -1 0 0
    outer loop
      vertex 10 40 7
      vertex 10 40 23
      vertex 10 41.91452407836914 22.767534255981445
    endloop
  endfacet
  facet normal -1 0 0
    outer loop
      vertex 10 38.085472106933594 7.232464790344238
      vertex 10 40 23
      vertex 10 40 7
    endloop
  endfacet
  facet normal -1 0 0
    outer loop
      vertex 10 38.085472106933594 7.232464790344238
      vertex 10 38.085472106933594 22.767534255981445
      vertex 10 40 23
    endloop
  endfacet
  facet normal -1 0 0
    outer loop
      vertex 10 36.2822151184082 7.916351318359375
      vertex 10 38.085472106933594 22.767534255981445
      vertex 10 38.085472106933594 7.232464790344238
    endloop
  endfacet
  facet normal -1 0 0
    outer loop
      vertex 10 36.2822151184082 7.916351318359375
      vertex 10 36.2822151184082 22.083648681640625
      vertex 10 38.085472106933594 22.767534255981445
    endloop
  endfacet
  facet normal -1 0 0
    outer loop
      vertex 10 34.69501876831055 9.011913299560547
      vertex 10 36.2822151184082 22.083648681640625
      vertex 10 36.2822151184082 7.916351318359375
    endloop
  endfacet
  facet normal -1 0 0
    outer loop
      vertex 10 34.69501876831055 9.011913299560547
      vertex 10 34.69501876831055 20.988086700439453
      vertex 10 36.2822151184082 22.083648681640625
    endloop
  endfacet
  facet normal -1 0 0
    outer loop
      vertex 10 33.41613006591797 10.45548152923584
      vertex 10 34.69501876831055 20.988086700439453
      vertex 10 34.69501876831055 9.011913299560547
    endloop
  endfacet
  facet normal -1 0 0
    outer loop
      vertex 10 33.41613006591797 10.45548152923584
      vertex 10 33.41613006591797 19.544517517089844
      vertex 10 34.69501876831055 20.988086700439453
    endloop
  endfacet
  facet normal -1 0 0
    outer loop
      vertex 10 32.51987075805664 12.16316032409668
      vertex 10 33.41613006591797 19.544517517089844
      vertex 10 33.41613006591797 10.45548152923584
    endloop
  endfacet
  facet normal -1 0 0
    outer loop
      vertex 10 32.51987075805664 12.16316032409668
      vertex 10 32.51987075805664 17.836837768554688
      vertex 10 33.41613006591797 19.544517517089844
    endloop
  endfacet
  facet normal -1 0 0
    outer loop
      vertex 10 32.058326721191406 14.035706520080566
      vertex 10 32.51987075805664 17.836837768554688
      vertex 10 32.51987075805664 12.16316032409668
    endloop
  endfacet
  facet normal -1 0 0
    outer loop
      vertex 10 32.51987075805664 17.836837768554688
      vertex 10 32.058326721191406 14.035706520080566
      vertex 10 32.058326721191406 15.964292526245117
    endloop
  endfacet
  facet normal 0 0.8854559537697829 0.46472330900616987
    outer loop
      vertex 10 33.41613006591797 10.45548152923584
      vertex 0 32.51987075805664 12.16316032409668
      vertex 10 32.51987075805664 12.16316032409668
    endloop
  endfacet
  facet normal 0 0.8854559537697829 0.46472330900616987
    outer loop
      vertex 0 32.51987075805664 12.16316032409668
      vertex 10 33.41613006591797 10.45548152923584
      vertex 0 33.41613006591797 10.45548152923584
    endloop
  endfacet
  facet normal 0 -0.35460441517369273 -0.9350164216415258
    outer loop
      vertex 0 41.91452407836914 22.767534255981445
      vertex 10 43.7177848815918 22.083648681640625
      vertex 10 41.91452407836914 22.767534255981445
    endloop
  endfacet
  facet normal 0 -0.35460441517369273 -0.9350164216415258
    outer loop
      vertex 10 43.7177848815918 22.083648681640625
      vertex 0 41.91452407836914 22.767534255981445
      vertex 0 43.7177848815918 22.083648681640625
    endloop
  endfacet
  facet normal 0 -0.7485112621276678 -0.663122078103305
    outer loop
      vertex 0 46.58386993408203 19.544517517089844
      vertex 10 45.30498123168945 20.988086700439453
      vertex 0 45.30498123168945 20.988086700439453
    endloop
  endfacet
  facet normal 0 -0.7485112621276678 -0.663122078103305
    outer loop
      vertex 10 45.30498123168945 20.988086700439453
      vertex 0 46.58386993408203 19.544517517089844
      vertex 10 46.58386993408203 19.544517517089844
    endloop
  endfacet
  facet normal 0 -1 0
    outer loop
      vertex 0 47.94166946411133 14.035706520080566
      vertex 10 47.94166946411133 15.964292526245117
      vertex 0 47.94166946411133 15.964292526245117
    endloop
  endfacet
  facet normal 0 -1 0
    outer loop
      vertex 10 47.94166946411133 15.964292526245117
      vertex 0 47.94166946411133 14.035706520080566
      vertex 10 47.94166946411133 14.035706520080566
    endloop
  endfacet
  facet normal 0 -0.12053690176370264 -0.9927088472020422
    outer loop
      vertex 0 40 23
      vertex 10 41.91452407836914 22.767534255981445
      vertex 10 40 23
    endloop
  endfacet
  facet normal 0 -0.12053690176370264 -0.9927088472020422
    outer loop
      vertex 10 41.91452407836914 22.767534255981445
      vertex 0 40 23
      vertex 0 41.91452407836914 22.767534255981445
    endloop
  endfacet
  facet normal 0 0.12053666508334983 -0.992708875940265
    outer loop
      vertex 0 38.085472106933594 22.767534255981445
      vertex 10 40 23
      vertex 10 38.085472106933594 22.767534255981445
    endloop
  endfacet
  facet normal 0 0.12053666508334983 -0.992708875940265
    outer loop
      vertex 10 40 23
      vertex 0 38.085472106933594 22.767534255981445
      vertex 0 40 23
    endloop
  endfacet
  facet normal 0 -0.8854560605644314 -0.46472310552598767
    outer loop
      vertex 0 47.48012924194336 17.836837768554688
      vertex 10 46.58386993408203 19.544517517089844
      vertex 0 46.58386993408203 19.544517517089844
    endloop
  endfacet
  facet normal 0 -0.8854560605644314 -0.46472310552598767
    outer loop
      vertex 10 46.58386993408203 19.544517517089844
      vertex 0 47.48012924194336 17.836837768554688
      vertex 10 47.48012924194336 17.836837768554688
    endloop
  endfacet
  facet normal 0 0.7485110446833617 0.6631223235474905
    outer loop
      vertex 10 34.69501876831055 9.011913299560547
      vertex 0 33.41613006591797 10.45548152923584
      vertex 10 33.41613006591797 10.45548152923584
    endloop
  endfacet
  facet normal 0 0.7485110446833617 0.6631223235474905
    outer loop
      vertex 0 33.41613006591797 10.45548152923584
      vertex 10 34.69501876831055 9.011913299560547
      vertex 0 34.69501876831055 9.011913299560547
    endloop
  endfacet
  facet normal 0 0.8854560605644314 -0.46472310552598767
    outer loop
      vertex 10 32.51987075805664 17.836837768554688
      vertex 0 33.41613006591797 19.544517517089844
      vertex 10 33.41613006591797 19.544517517089844
    endloop
  endfacet
  facet normal 0 0.8854560605644314 -0.46472310552598767
    outer loop
      vertex 0 33.41613006591797 19.544517517089844
      vertex 10 32.51987075805664 17.836837768554688
      vertex 0 32.51987075805664 17.836837768554688
    endloop
  endfacet
  facet normal 0 -0.3546048474875386 0.9350162576866455
    outer loop
      vertex 0 43.7177848815918 7.916351318359375
      vertex 10 41.91452407836914 7.232464790344238
      vertex 10 43.7177848815918 7.916351318359375
    endloop
  endfacet
  facet normal 0 -0.3546048474875386 0.9350162576866455
    outer loop
      vertex 10 41.91452407836914 7.232464790344238
      vertex 0 43.7177848815918 7.916351318359375
      vertex 0 41.91452407836914 7.232464790344238
    endloop
  endfacet
  facet normal 0 0.35460507099405436 -0.9350161729217852
    outer loop
      vertex 0 36.2822151184082 22.083648681640625
      vertex 10 38.085472106933594 22.767534255981445
      vertex 10 36.2822151184082 22.083648681640625
    endloop
  endfacet
  facet normal 0 0.35460507099405436 -0.9350161729217852
    outer loop
      vertex 10 38.085472106933594 22.767534255981445
      vertex 0 36.2822151184082 22.083648681640625
      vertex 0 38.085472106933594 22.767534255981445
    endloop
  endfacet
  facet normal 0 -0.12053641445409928 0.9927089063721297
    outer loop
      vertex 588.7999877929688 41.91452407836914 7.232464790344238
      vertex 598.7999877929688 40 7
      vertex 598.7999877929688 41.91452407836914 7.232464790344238
    endloop
  endfacet
  facet normal 0 -0.12053641445409928 0.9927089063721297
    outer loop
      vertex 598.7999877929688 40 7
      vertex 588.7999877929688 41.91452407836914 7.232464790344238
      vertex 588.7999877929688 40 7
    endloop
  endfacet
  facet normal 0 0.5680645512825665 0.8229840008020425
    outer loop
      vertex 588.7999877929688 36.2822151184082 7.916351318359375
      vertex 598.7999877929688 34.69501876831055 9.011913299560547
      vertex 598.7999877929688 36.2822151184082 7.916351318359375
    endloop
  endfacet
  facet normal 0 0.5680645512825665 0.8229840008020425
    outer loop
      vertex 598.7999877929688 34.69501876831055 9.011913299560547
      vertex 588.7999877929688 36.2822151184082 7.916351318359375
      vertex 588.7999877929688 34.69501876831055 9.011913299560547
    endloop
  endfacet
  facet normal 0 -0.7485110446833617 0.6631223235474905
    outer loop
      vertex 588.7999877929688 45.30498123168945 9.011913299560547
      vertex 598.7999877929688 46.58386993408203 10.45548152923584
      vertex 588.7999877929688 46.58386993408203 10.45548152923584
    endloop
  endfacet
  facet normal 0 -0.7485110446833617 0.6631223235474905
    outer loop
      vertex 598.7999877929688 46.58386993408203 10.45548152923584
      vertex 588.7999877929688 45.30498123168945 9.011913299560547
      vertex 598.7999877929688 45.30498123168945 9.011913299560547
    endloop
  endfacet
  facet normal 0 -0.8854559537697829 0.46472330900616987
    outer loop
      vertex 588.7999877929688 46.58386993408203 10.45548152923584
      vertex 598.7999877929688 47.48012924194336 12.16316032409668
      vertex 588.7999877929688 47.48012924194336 12.16316032409668
    endloop
  endfacet
  facet normal 0 -0.8854559537697829 0.46472330900616987
    outer loop
      vertex 598.7999877929688 47.48012924194336 12.16316032409668
      vertex 588.7999877929688 46.58386993408203 10.45548152923584
      vertex 598.7999877929688 46.58386993408203 10.45548152923584
    endloop
  endfacet
  facet normal 1 0 0
    outer loop
      vertex 588.7999877929688 43.74006652832031 16.418418884277344
      vertex 588.7999877929688 47.94166946411133 15.964292526245117
      vertex 588.7999877929688 47.48012924194336 17.836837768554688
    endloop
  endfacet
  facet normal 1 0 0
    outer loop
      vertex 588.7999877929688 47.94166946411133 15.964292526245117
      vertex 588.7999877929688 43.97083282470703 14.517852783203125
      vertex 588.7999877929688 47.94166946411133 14.035706520080566
    endloop
  endfacet
  facet normal 1 0 0
    outer loop
      vertex 588.7999877929688 43.74006652832031 16.418418884277344
      vertex 588.7999877929688 47.48012924194336 17.836837768554688
      vertex 588.7999877929688 46.58386993408203 19.544517517089844
    endloop
  endfacet
  facet normal 1 0 0
    outer loop
      vertex 588.7999877929688 47.94166946411133 14.035706520080566
      vertex 588.7999877929688 43.97083282470703 14.517852783203125
      vertex 588.7999877929688 47.48012924194336 12.16316032409668
    endloop
  endfacet
  facet normal 1 0 0
    outer loop
      vertex 588.7999877929688 42.652488708496094 17.994041442871094
      vertex 588.7999877929688 46.58386993408203 19.544517517089844
      vertex 588.7999877929688 45.30498123168945 20.988086700439453
    endloop
  endfacet
  facet normal 1 0 0
    outer loop
      vertex 588.7999877929688 43.291934967041016 12.727740287780762
      vertex 588.7999877929688 47.48012924194336 12.16316032409668
      vertex 588.7999877929688 43.97083282470703 14.517852783203125
    endloop
  endfacet
  facet normal 1 0 0
    outer loop
      vertex 588.7999877929688 47.48012924194336 12.16316032409668
      vertex 588.7999877929688 43.291934967041016 12.727740287780762
      vertex 588.7999877929688 46.58386993408203 10.45548152923584
    endloop
  endfacet
  facet normal 1 0 0
    outer loop
      vertex 588.7999877929688 47.94166946411133 15.964292526245117
      vertex 588.7999877929688 43.74006652832031 16.418418884277344
      vertex 588.7999877929688 43.97083282470703 14.517852783203125
    endloop
  endfacet
  facet normal 1 0 0
    outer loop
      vertex 588.7999877929688 42.652488708496094 17.994041442871094
      vertex 588.7999877929688 45.30498123168945 20.988086700439453
      vertex 588.7999877929688 43.7177848815918 22.083648681640625
    endloop
  endfacet
  facet normal 1 0 0
    outer loop
      vertex 588.7999877929688 46.58386993408203 19.544517517089844
      vertex 588.7999877929688 42.652488708496094 17.994041442871094
      vertex 588.7999877929688 43.74006652832031 16.418418884277344
    endloop
  endfacet
  facet normal 1 0 0
    outer loop
      vertex 588.7999877929688 40.95726013183594 18.883766174316406
      vertex 588.7999877929688 43.7177848815918 22.083648681640625
      vertex 588.7999877929688 41.91452407836914 22.767534255981445
    endloop
  endfacet
  facet normal 1 0 0
    outer loop
      vertex 588.7999877929688 43.7177848815918 22.083648681640625
      vertex 588.7999877929688 40.95726013183594 18.883766174316406
      vertex 588.7999877929688 42.652488708496094 17.994041442871094
    endloop
  endfacet
  facet normal 1 0 0
    outer loop
      vertex 588.7999877929688 40 23
      vertex 588.7999877929688 40.95726013183594 18.883766174316406
      vertex 588.7999877929688 41.91452407836914 22.767534255981445
    endloop
  endfacet
  facet normal 1 0 0
    outer loop
      vertex 588.7999877929688 40 23
      vertex 588.7999877929688 39.0427360534668 18.883766174316406
      vertex 588.7999877929688 40.95726013183594 18.883766174316406
    endloop
  endfacet
  facet normal 1 0 0
    outer loop
      vertex 588.7999877929688 38.085472106933594 22.767534255981445
      vertex 588.7999877929688 39.0427360534668 18.883766174316406
      vertex 588.7999877929688 40 23
    endloop
  endfacet
  facet normal 1 0 0
    outer loop
      vertex 588.7999877929688 36.2822151184082 22.083648681640625
      vertex 588.7999877929688 39.0427360534668 18.883766174316406
      vertex 588.7999877929688 38.085472106933594 22.767534255981445
    endloop
  endfacet
  facet normal 1 0 0
    outer loop
      vertex 588.7999877929688 39.0427360534668 18.883766174316406
      vertex 588.7999877929688 36.2822151184082 22.083648681640625
      vertex 588.7999877929688 37.34750747680664 17.994041442871094
    endloop
  endfacet
  facet normal 1 0 0
    outer loop
      vertex 588.7999877929688 34.69501876831055 20.988086700439453
      vertex 588.7999877929688 37.34750747680664 17.994041442871094
      vertex 588.7999877929688 36.2822151184082 22.083648681640625
    endloop
  endfacet
  facet normal 1 0 0
    outer loop
      vertex 588.7999877929688 33.41613006591797 19.544517517089844
      vertex 588.7999877929688 37.34750747680664 17.994041442871094
      vertex 588.7999877929688 34.69501876831055 20.988086700439453
    endloop
  endfacet
  facet normal 1 0 0
    outer loop
      vertex 588.7999877929688 37.34750747680664 17.994041442871094
      vertex 588.7999877929688 33.41613006591797 19.544517517089844
      vertex 588.7999877929688 36.25993347167969 16.418418884277344
    endloop
  endfacet
  facet normal 1 0 0
    outer loop
      vertex 588.7999877929688 46.58386993408203 10.45548152923584
      vertex 588.7999877929688 43.291934967041016 12.727740287780762
      vertex 588.7999877929688 45.30498123168945 9.011913299560547
    endloop
  endfacet
  facet normal 1 0 0
    outer loop
      vertex 588.7999877929688 41.85889434814453 11.458175659179688
      vertex 588.7999877929688 45.30498123168945 9.011913299560547
      vertex 588.7999877929688 43.291934967041016 12.727740287780762
    endloop
  endfacet
  facet normal 1 0 0
    outer loop
      vertex 588.7999877929688 45.30498123168945 9.011913299560547
      vertex 588.7999877929688 41.85889434814453 11.458175659179688
      vertex 588.7999877929688 43.7177848815918 7.916351318359375
    endloop
  endfacet
  facet normal 1 0 0
    outer loop
      vertex 588.7999877929688 43.7177848815918 7.916351318359375
      vertex 588.7999877929688 41.85889434814453 11.458175659179688
      vertex 588.7999877929688 41.91452407836914 7.232464790344238
    endloop
  endfacet
  facet normal 1 0 0
    outer loop
      vertex 588.7999877929688 40 11
      vertex 588.7999877929688 41.91452407836914 7.232464790344238
      vertex 588.7999877929688 41.85889434814453 11.458175659179688
    endloop
  endfacet
  facet normal 1 0 0
    outer loop
      vertex 588.7999877929688 40 11
      vertex 588.7999877929688 40 7
      vertex 588.7999877929688 41.91452407836914 7.232464790344238
    endloop
  endfacet
  facet normal 1 0 0
    outer loop
      vertex 588.7999877929688 38.085472106933594 7.232464790344238
      vertex 588.7999877929688 40 11
      vertex 588.7999877929688 38.14110565185547 11.458175659179688
    endloop
  endfacet
  facet normal 1 0 0
    outer loop
      vertex 588.7999877929688 40 11
      vertex 588.7999877929688 38.085472106933594 7.232464790344238
      vertex 588.7999877929688 40 7
    endloop
  endfacet
  facet normal 1 0 0
    outer loop
      vertex 588.7999877929688 34.69501876831055 9.011913299560547
      vertex 588.7999877929688 38.14110565185547 11.458175659179688
      vertex 588.7999877929688 36.708065032958984 12.727740287780762
    endloop
  endfacet
  facet normal 1 0 0
    outer loop
      vertex 588.7999877929688 38.14110565185547 11.458175659179688
      vertex 588.7999877929688 36.2822151184082 7.916351318359375
      vertex 588.7999877929688 38.085472106933594 7.232464790344238
    endloop
  endfacet
  facet normal 1 0 0
    outer loop
      vertex 588.7999877929688 32.51987075805664 12.16316032409668
      vertex 588.7999877929688 36.708065032958984 12.727740287780762
      vertex 588.7999877929688 36.0291633605957 14.517852783203125
    endloop
  endfacet
  facet normal 1 0 0
    outer loop
      vertex 588.7999877929688 32.51987075805664 17.836837768554688
      vertex 588.7999877929688 36.25993347167969 16.418418884277344
      vertex 588.7999877929688 33.41613006591797 19.544517517089844
    endloop
  endfacet
  facet normal 1 0 0
    outer loop
      vertex 588.7999877929688 38.14110565185547 11.458175659179688
      vertex 588.7999877929688 34.69501876831055 9.011913299560547
      vertex 588.7999877929688 36.2822151184082 7.916351318359375
    endloop
  endfacet
  facet normal 1 0 0
    outer loop
      vertex 588.7999877929688 32.058326721191406 15.964292526245117
      vertex 588.7999877929688 36.25993347167969 16.418418884277344
      vertex 588.7999877929688 32.51987075805664 17.836837768554688
    endloop
  endfacet
  facet normal 1 0 0
    outer loop
      vertex 588.7999877929688 36.708065032958984 12.727740287780762
      vertex 588.7999877929688 33.41613006591797 10.45548152923584
      vertex 588.7999877929688 34.69501876831055 9.011913299560547
    endloop
  endfacet
  facet normal 1 0 0
    outer loop
      vertex 588.7999877929688 36.25993347167969 16.418418884277344
      vertex 588.7999877929688 32.058326721191406 15.964292526245117
      vertex 588.7999877929688 36.0291633605957 14.517852783203125
    endloop
  endfacet
  facet normal 1 0 0
    outer loop
      vertex 588.7999877929688 36.708065032958984 12.727740287780762
      vertex 588.7999877929688 32.51987075805664 12.16316032409668
      vertex 588.7999877929688 33.41613006591797 10.45548152923584
    endloop
  endfacet
  facet normal 1 0 0
    outer loop
      vertex 588.7999877929688 32.058326721191406 14.035706520080566
      vertex 588.7999877929688 36.0291633605957 14.517852783203125
      vertex 588.7999877929688 32.058326721191406 15.964292526245117
    endloop
  endfacet
  facet normal 1 0 0
    outer loop
      vertex 588.7999877929688 36.0291633605957 14.517852783203125
      vertex 588.7999877929688 32.058326721191406 14.035706520080566
      vertex 588.7999877929688 32.51987075805664 12.16316032409668
    endloop
  endfacet
  facet normal 0 0.1205361777746751 0.9927089351101217
    outer loop
      vertex 588.7999877929688 40 7
      vertex 598.7999877929688 38.085472106933594 7.232464790344238
      vertex 598.7999877929688 40 7
    endloop
  endfacet
  facet normal 0 0.1205361777746751 0.9927089351101217
    outer loop
      vertex 598.7999877929688 38.085472106933594 7.232464790344238
      vertex 588.7999877929688 40 7
      vertex 588.7999877929688 38.085472106933594 7.232464790344238
    endloop
  endfacet
  facet normal 0 0.7485112621276678 -0.663122078103305
    outer loop
      vertex 598.7999877929688 33.41613006591797 19.544517517089844
      vertex 588.7999877929688 34.69501876831055 20.988086700439453
      vertex 598.7999877929688 34.69501876831055 20.988086700439453
    endloop
  endfacet
  facet normal 0 0.7485112621276678 -0.663122078103305
    outer loop
      vertex 588.7999877929688 34.69501876831055 20.988086700439453
      vertex 598.7999877929688 33.41613006591797 19.544517517089844
      vertex 588.7999877929688 33.41613006591797 19.544517517089844
    endloop
  endfacet
  facet normal 0 -0.5680645512825665 -0.8229840008020425
    outer loop
      vertex 588.7999877929688 43.7177848815918 22.083648681640625
      vertex 598.7999877929688 45.30498123168945 20.988086700439453
      vertex 598.7999877929688 43.7177848815918 22.083648681640625
    endloop
  endfacet
  facet normal 0 -0.5680645512825665 -0.8229840008020425
    outer loop
      vertex 598.7999877929688 45.30498123168945 20.988086700439453
      vertex 588.7999877929688 43.7177848815918 22.083648681640625
      vertex 588.7999877929688 45.30498123168945 20.988086700439453
    endloop
  endfacet
  facet normal 0 0.35460550330846974 0.9350160089663421
    outer loop
      vertex 588.7999877929688 38.085472106933594 7.232464790344238
      vertex 598.7999877929688 36.2822151184082 7.916351318359375
      vertex 598.7999877929688 38.085472106933594 7.232464790344238
    endloop
  endfacet
  facet normal 0 0.35460550330846974 0.9350160089663421
    outer loop
      vertex 598.7999877929688 36.2822151184082 7.916351318359375
      vertex 588.7999877929688 38.085472106933594 7.232464790344238
      vertex 588.7999877929688 36.2822151184082 7.916351318359375
    endloop
  endfacet
  facet normal 0 0.9709414454812132 -0.23931717332204222
    outer loop
      vertex 598.7999877929688 32.058326721191406 15.964292526245117
      vertex 588.7999877929688 32.51987075805664 17.836837768554688
      vertex 598.7999877929688 32.51987075805664 17.836837768554688
    endloop
  endfacet
  facet normal 0 0.9709414454812132 -0.23931717332204222
    outer loop
      vertex 588.7999877929688 32.51987075805664 17.836837768554688
      vertex 598.7999877929688 32.058326721191406 15.964292526245117
      vertex 588.7999877929688 32.058326721191406 15.964292526245117
    endloop
  endfacet
  facet normal 0 0.9709414738021896 0.23931705842006312
    outer loop
      vertex 598.7999877929688 32.51987075805664 12.16316032409668
      vertex 588.7999877929688 32.058326721191406 14.035706520080566
      vertex 598.7999877929688 32.058326721191406 14.035706520080566
    endloop
  endfacet
  facet normal 0 0.9709414738021896 0.23931705842006312
    outer loop
      vertex 588.7999877929688 32.058326721191406 14.035706520080566
      vertex 598.7999877929688 32.51987075805664 12.16316032409668
      vertex 588.7999877929688 32.51987075805664 12.16316032409668
    endloop
  endfacet
  facet normal 0 -0.5680645512825665 0.8229840008020425
    outer loop
      vertex 588.7999877929688 45.30498123168945 9.011913299560547
      vertex 598.7999877929688 43.7177848815918 7.916351318359375
      vertex 598.7999877929688 45.30498123168945 9.011913299560547
    endloop
  endfacet
  facet normal 0 -0.5680645512825665 0.8229840008020425
    outer loop
      vertex 598.7999877929688 43.7177848815918 7.916351318359375
      vertex 588.7999877929688 45.30498123168945 9.011913299560547
      vertex 588.7999877929688 43.7177848815918 7.916351318359375
    endloop
  endfacet
  facet normal 0 -0.9709419334083189 0.23931519372851232
    outer loop
      vertex 588.7999877929688 47.48012924194336 12.16316032409668
      vertex 598.7999877929688 47.94166946411133 14.035706520080566
      vertex 588.7999877929688 47.94166946411133 14.035706520080566
    endloop
  endfacet
  facet normal 0 -0.9709419334083189 0.23931519372851232
    outer loop
      vertex 598.7999877929688 47.94166946411133 14.035706520080566
      vertex 588.7999877929688 47.48012924194336 12.16316032409668
      vertex 598.7999877929688 47.48012924194336 12.16316032409668
    endloop
  endfacet
  facet normal 0 -1 0
    outer loop
      vertex 588.7999877929688 47.94166946411133 14.035706520080566
      vertex 598.7999877929688 47.94166946411133 15.964292526245117
      vertex 588.7999877929688 47.94166946411133 15.964292526245117
    endloop
  endfacet
  facet normal 0 -1 0
    outer loop
      vertex 598.7999877929688 47.94166946411133 15.964292526245117
      vertex 588.7999877929688 47.94166946411133 14.035706520080566
      vertex 598.7999877929688 47.94166946411133 14.035706520080566
    endloop
  endfacet
  facet normal 0 0.5680645512825665 -0.8229840008020425
    outer loop
      vertex 588.7999877929688 34.69501876831055 20.988086700439453
      vertex 598.7999877929688 36.2822151184082 22.083648681640625
      vertex 598.7999877929688 34.69501876831055 20.988086700439453
    endloop
  endfacet
  facet normal 0 0.5680645512825665 -0.8229840008020425
    outer loop
      vertex 598.7999877929688 36.2822151184082 22.083648681640625
      vertex 588.7999877929688 34.69501876831055 20.988086700439453
      vertex 588.7999877929688 36.2822151184082 22.083648681640625
    endloop
  endfacet
  facet normal 0 1 0
    outer loop
      vertex 598.7999877929688 32.058326721191406 14.035706520080566
      vertex 588.7999877929688 32.058326721191406 15.964292526245117
      vertex 598.7999877929688 32.058326721191406 15.964292526245117
    endloop
  endfacet
  facet normal 0 1 0
    outer loop
      vertex 588.7999877929688 32.058326721191406 15.964292526245117
      vertex 598.7999877929688 32.058326721191406 14.035706520080566
      vertex 588.7999877929688 32.058326721191406 14.035706520080566
    endloop
  endfacet
  facet normal 0 -0.9709419050877705 -0.23931530862970493
    outer loop
      vertex 588.7999877929688 47.94166946411133 15.964292526245117
      vertex 598.7999877929688 47.48012924194336 17.836837768554688
      vertex 588.7999877929688 47.48012924194336 17.836837768554688
    endloop
  endfacet
  facet normal 0 -0.9709419050877705 -0.23931530862970493
    outer loop
      vertex 598.7999877929688 47.48012924194336 17.836837768554688
      vertex 588.7999877929688 47.94166946411133 15.964292526245117
      vertex 598.7999877929688 47.94166946411133 15.964292526245117
    endloop
  endfacet
  facet normal 0 0.8854559537697829 0.46472330900616987
    outer loop
      vertex 598.7999877929688 33.41613006591797 10.45548152923584
      vertex 588.7999877929688 32.51987075805664 12.16316032409668
      vertex 598.7999877929688 32.51987075805664 12.16316032409668
    endloop
  endfacet
  facet normal 0 0.8854559537697829 0.46472330900616987
    outer loop
      vertex 588.7999877929688 32.51987075805664 12.16316032409668
      vertex 598.7999877929688 33.41613006591797 10.45548152923584
      vertex 588.7999877929688 33.41613006591797 10.45548152923584
    endloop
  endfacet
  facet normal 0 -0.35460441517369273 -0.9350164216415258
    outer loop
      vertex 588.7999877929688 41.91452407836914 22.767534255981445
      vertex 598.7999877929688 43.7177848815918 22.083648681640625
      vertex 598.7999877929688 41.91452407836914 22.767534255981445
    endloop
  endfacet
  facet normal 0 -0.35460441517369273 -0.9350164216415258
    outer loop
      vertex 598.7999877929688 43.7177848815918 22.083648681640625
      vertex 588.7999877929688 41.91452407836914 22.767534255981445
      vertex 588.7999877929688 43.7177848815918 22.083648681640625
    endloop
  endfacet
  facet normal 0 -0.7485112621276678 -0.663122078103305
    outer loop
      vertex 588.7999877929688 46.58386993408203 19.544517517089844
      vertex 598.7999877929688 45.30498123168945 20.988086700439453
      vertex 588.7999877929688 45.30498123168945 20.988086700439453
    endloop
  endfacet
  facet normal 0 -0.7485112621276678 -0.663122078103305
    outer loop
      vertex 598.7999877929688 45.30498123168945 20.988086700439453
      vertex 588.7999877929688 46.58386993408203 19.544517517089844
      vertex 598.7999877929688 46.58386993408203 19.544517517089844
    endloop
  endfacet
  facet normal 0 -0.12053690176370264 -0.9927088472020422
    outer loop
      vertex 588.7999877929688 40 23
      vertex 598.7999877929688 41.91452407836914 22.767534255981445
      vertex 598.7999877929688 40 23
    endloop
  endfacet
  facet normal 0 -0.12053690176370264 -0.9927088472020422
    outer loop
      vertex 598.7999877929688 41.91452407836914 22.767534255981445
      vertex 588.7999877929688 40 23
      vertex 588.7999877929688 41.91452407836914 22.767534255981445
    endloop
  endfacet
  facet normal 0 0.12053666508334983 -0.992708875940265
    outer loop
      vertex 588.7999877929688 38.085472106933594 22.767534255981445
      vertex 598.7999877929688 40 23
      vertex 598.7999877929688 38.085472106933594 22.767534255981445
    endloop
  endfacet
  facet normal 0 0.12053666508334983 -0.992708875940265
    outer loop
      vertex 598.7999877929688 40 23
      vertex 588.7999877929688 38.085472106933594 22.767534255981445
      vertex 588.7999877929688 40 23
    endloop
  endfacet
  facet normal 0 -0.8854560605644314 -0.46472310552598767
    outer loop
      vertex 588.7999877929688 47.48012924194336 17.836837768554688
      vertex 598.7999877929688 46.58386993408203 19.544517517089844
      vertex 588.7999877929688 46.58386993408203 19.544517517089844
    endloop
  endfacet
  facet normal 0 -0.8854560605644314 -0.46472310552598767
    outer loop
      vertex 598.7999877929688 46.58386993408203 19.544517517089844
      vertex 588.7999877929688 47.48012924194336 17.836837768554688
      vertex 598.7999877929688 47.48012924194336 17.836837768554688
    endloop
  endfacet
  facet normal 0 0.7485110446833617 0.6631223235474905
    outer loop
      vertex 598.7999877929688 34.69501876831055 9.011913299560547
      vertex 588.7999877929688 33.41613006591797 10.45548152923584
      vertex 598.7999877929688 33.41613006591797 10.45548152923584
    endloop
  endfacet
  facet normal 0 0.7485110446833617 0.6631223235474905
    outer loop
      vertex 588.7999877929688 33.41613006591797 10.45548152923584
      vertex 598.7999877929688 34.69501876831055 9.011913299560547
      vertex 588.7999877929688 34.69501876831055 9.011913299560547
    endloop
  endfacet
  facet normal 0 0.8854560605644314 -0.46472310552598767
    outer loop
      vertex 598.7999877929688 32.51987075805664 17.836837768554688
      vertex 588.7999877929688 33.41613006591797 19.544517517089844
      vertex 598.7999877929688 33.41613006591797 19.544517517089844
    endloop
  endfacet
  facet normal 0 0.8854560605644314 -0.46472310552598767
    outer loop
      vertex 588.7999877929688 33.41613006591797 19.544517517089844
      vertex 598.7999877929688 32.51987075805664 17.836837768554688
      vertex 588.7999877929688 32.51987075805664 17.836837768554688
    endloop
  endfacet
  facet normal 0 -0.3546048474875386 0.9350162576866455
    outer loop
      vertex 588.7999877929688 43.7177848815918 7.916351318359375
      vertex 598.7999877929688 41.91452407836914 7.232464790344238
      vertex 598.7999877929688 43.7177848815918 7.916351318359375
    endloop
  endfacet
  facet normal 0 -0.3546048474875386 0.9350162576866455
    outer loop
      vertex 598.7999877929688 41.91452407836914 7.232464790344238
      vertex 588.7999877929688 43.7177848815918 7.916351318359375
      vertex 588.7999877929688 41.91452407836914 7.232464790344238
    endloop
  endfacet
  facet normal 0 0.35460507099405436 -0.9350161729217852
    outer loop
      vertex 588.7999877929688 36.2822151184082 22.083648681640625
      vertex 598.7999877929688 38.085472106933594 22.767534255981445
      vertex 598.7999877929688 36.2822151184082 22.083648681640625
    endloop
  endfacet
  facet normal 0 0.35460507099405436 -0.9350161729217852
    outer loop
      vertex 598.7999877929688 38.085472106933594 22.767534255981445
      vertex 588.7999877929688 36.2822151184082 22.083648681640625
      vertex 588.7999877929688 38.085472106933594 22.767534255981445
    endloop
  endfacet
endsolid OpenSCAD_Model
