solid OpenSCAD_Model
  facet normal 1 0 0
    outer loop
      vertex 80 0 30
      vertex 80 598.7999877929688 0
      vertex 80 598.7999877929688 30
    endloop
  endfacet
  facet normal 1 0 0
    outer loop
      vertex 80 598.7999877929688 0
      vertex 80 0 30
      vertex 80 0 0
    endloop
  endfacet
  facet normal 0 0 1
    outer loop
      vertex 0 598.7999877929688 30
      vertex 80 0 30
      vertex 80 598.7999877929688 30
    endloop
  endfacet
  facet normal 0 0 1
    outer loop
      vertex 80 0 30
      vertex 0 598.7999877929688 30
      vertex 0 0 30
    endloop
  endfacet
  facet normal 0 0 -1
    outer loop
      vertex 0 0 0
      vertex 80 598.7999877929688 0
      vertex 80 0 0
    endloop
  endfacet
  facet normal 0 0 -1
    outer loop
      vertex 80 598.7999877929688 0
      vertex 0 0 0
      vertex 0 598.7999877929688 0
    endloop
  endfacet
  facet normal -1 0 0
    outer loop
      vertex 0 0 0
      vertex 0 598.7999877929688 30
      vertex 0 598.7999877929688 0
    endloop
  endfacet
  facet normal -1 0 0
    outer loop
      vertex 0 598.7999877929688 30
      vertex 0 0 0
      vertex 0 0 30
    endloop
  endfacet
  facet normal 0 1 0
    outer loop
      vertex 80 598.7999877929688 0
      vertex 0 598.7999877929688 30
      vertex 80 598.7999877929688 30
    endloop
  endfacet
  facet normal 0 1 0
    outer loop
      vertex 0 598.7999877929688 30
      vertex 80 598.7999877929688 0
      vertex 0 598.7999877929688 0
    endloop
  endfacet
  facet normal 0 -1 0
    outer loop
      vertex 0 0 30
      vertex 39.03570556640625 0 22.941669464111328
      vertex 80 0 30
    endloop
  endfacet
  facet normal 0 -1 0
    outer loop
      vertex 0 0 30
      vertex 37.16316223144531 0 22.48012924194336
      vertex 39.03570556640625 0 22.941669464111328
    endloop
  endfacet
  facet normal 0 -1 0
    outer loop
      vertex 0 0 30
      vertex 35.455482482910156 0 21.58386993408203
      vertex 37.16316223144531 0 22.48012924194336
    endloop
  endfacet
  facet normal 0 -1 0
    outer loop
      vertex 0 0 30
      vertex 34.01191329956055 0 20.304981231689453
      vertex 35.455482482910156 0 21.58386993408203
    endloop
  endfacet
  facet normal 0 -1 0
    outer loop
      vertex 0 0 30
      vertex 32.916351318359375 0 18.717784881591797
      vertex 34.01191329956055 0 20.304981231689453
    endloop
  endfacet
  facet normal 0 -1 0
    outer loop
      vertex 0 0 30
      vertex 32.23246383666992 0 16.91452407836914
      vertex 32.916351318359375 0 18.717784881591797
    endloop
  endfacet
  facet normal 0 -1 0
    outer loop
      vertex 0 0 30
      vertex 32 0 15
      vertex 32.23246383666992 0 16.91452407836914
    endloop
  endfacet
  facet normal 0 -1 0
    outer loop
      vertex 0 0 0
      vertex 32 0 15
      vertex 0 0 30
    endloop
  endfacet
  facet normal 0 -1 0
    outer loop
      vertex 32 0 15
      vertex 0 0 0
      vertex 32.23246383666992 0 13.085474014282227
    endloop
  endfacet
  facet normal 0 -1 0
    outer loop
      vertex 32.23246383666992 0 13.085474014282227
      vertex 0 0 0
      vertex 32.916351318359375 0 11.282214164733887
    endloop
  endfacet
  facet normal 0 -1 0
    outer loop
      vertex 32.916351318359375 0 11.282214164733887
      vertex 0 0 0
      vertex 34.01191329956055 0 9.69501781463623
    endloop
  endfacet
  facet normal 0 -1 0
    outer loop
      vertex 39.03570556640625 0 7.058328628540039
      vertex 0 0 0
      vertex 40.96429443359375 0 7.058328628540039
    endloop
  endfacet
  facet normal 0 -1 0
    outer loop
      vertex 37.16316223144531 0 7.519869804382324
      vertex 0 0 0
      vertex 39.03570556640625 0 7.058328628540039
    endloop
  endfacet
  facet normal 0 -1 0
    outer loop
      vertex 35.455482482910156 0 8.416128158569336
      vertex 0 0 0
      vertex 37.16316223144531 0 7.519869804382324
    endloop
  endfacet
  facet normal 0 -1 0
    outer loop
      vertex 34.01191329956055 0 9.69501781463623
      vertex 0 0 0
      vertex 35.455482482910156 0 8.416128158569336
    endloop
  endfacet
  facet normal 0 -1 0
    outer loop
      vertex 40.96429443359375 0 22.941669464111328
      vertex 80 0 30
      vertex 39.03570556640625 0 22.941669464111328
    endloop
  endfacet
  facet normal 0 -1 0
    outer loop
      vertex 42.83683776855469 0 22.48012924194336
      vertex 80 0 30
      vertex 40.96429443359375 0 22.941669464111328
    endloop
  endfacet
  facet normal 0 -1 0
    outer loop
      vertex 44.544517517089844 0 21.58386993408203
      vertex 80 0 30
      vertex 42.83683776855469 0 22.48012924194336
    endloop
  endfacet
  facet normal 0 -1 0
    outer loop
      vertex 45.98808670043945 0 20.304981231689453
      vertex 80 0 30
      vertex 44.544517517089844 0 21.58386993408203
    endloop
  endfacet
  facet normal 0 -1 0
    outer loop
      vertex 47.083648681640625 0 18.717784881591797
      vertex 80 0 30
      vertex 45.98808670043945 0 20.304981231689453
    endloop
  endfacet
  facet normal 0 -1 0
    outer loop
      vertex 47.76753234863281 0 16.91452407836914
      vertex 80 0 30
      vertex 47.083648681640625 0 18.717784881591797
    endloop
  endfacet
  facet normal 0 -1 0
    outer loop
      vertex 48 0 15
      vertex 80 0 30
      vertex 47.76753234863281 0 16.91452407836914
    endloop
  endfacet
  facet normal 0 -1 0
    outer loop
      vertex 80 0 0
      vertex 48 0 15
      vertex 47.76753234863281 0 13.085474014282227
    endloop
  endfacet
  facet normal 0 -1 0
    outer loop
      vertex 80 0 0
      vertex 47.76753234863281 0 13.085474014282227
      vertex 47.083648681640625 0 11.282214164733887
    endloop
  endfacet
  facet normal 0 -1 0
    outer loop
      vertex 80 0 0
      vertex 47.083648681640625 0 11.282214164733887
      vertex 45.98808670043945 0 9.69501781463623
    endloop
  endfacet
  facet normal 0 -1 0
    outer loop
      vertex 80 0 0
      vertex 45.98808670043945 0 9.69501781463623
      vertex 44.544517517089844 0 8.416128158569336
    endloop
  endfacet
  facet normal 0 -1 0
    outer loop
      vertex 48 0 15
      vertex 80 0 0
      vertex 80 0 30
    endloop
  endfacet
  facet normal 0 -1 0
    outer loop
      vertex 42.83683776855469 0 7.519869804382324
      vertex 80 0 0
      vertex 44.544517517089844 0 8.416128158569336
    endloop
  endfacet
  facet normal 0 -1 0
    outer loop
      vertex 40.96429443359375 0 7.058328628540039
      vertex 80 0 0
      vertex 42.83683776855469 0 7.519869804382324
    endloop
  endfacet
  facet normal 0 -1 0
    outer loop
      vertex 80 0 0
      vertex 40.96429443359375 0 7.058328628540039
      vertex 0 0 0
    endloop
  endfacet
  facet normal 0 -1 0
    outer loop
      vertex 38.581581115722656 0 18.74006462097168
      vertex 39.03570556640625 0 22.941669464111328
      vertex 37.16316223144531 0 22.48012924194336
    endloop
  endfacet
  facet normal 0 -1 0
    outer loop
      vertex 39.03570556640625 0 22.941669464111328
      vertex 40.482147216796875 0 18.970834732055664
      vertex 40.96429443359375 0 22.941669464111328
    endloop
  endfacet
  facet normal 0 -1 0
    outer loop
      vertex 38.581581115722656 0 18.74006462097168
      vertex 37.16316223144531 0 22.48012924194336
      vertex 35.455482482910156 0 21.58386993408203
    endloop
  endfacet
  facet normal 0 -1 0
    outer loop
      vertex 40.96429443359375 0 22.941669464111328
      vertex 40.482147216796875 0 18.970834732055664
      vertex 42.83683776855469 0 22.48012924194336
    endloop
  endfacet
  facet normal 0 -1 0
    outer loop
      vertex 37.005958557128906 0 17.652490615844727
      vertex 35.455482482910156 0 21.58386993408203
      vertex 34.01191329956055 0 20.304981231689453
    endloop
  endfacet
  facet normal 0 -1 0
    outer loop
      vertex 42.27225875854492 0 18.291934967041016
      vertex 42.83683776855469 0 22.48012924194336
      vertex 40.482147216796875 0 18.970834732055664
    endloop
  endfacet
  facet normal 0 -1 0
    outer loop
      vertex 42.83683776855469 0 22.48012924194336
      vertex 42.27225875854492 0 18.291934967041016
      vertex 44.544517517089844 0 21.58386993408203
    endloop
  endfacet
  facet normal 0 -1 0
    outer loop
      vertex 39.03570556640625 0 22.941669464111328
      vertex 38.581581115722656 0 18.74006462097168
      vertex 40.482147216796875 0 18.970834732055664
    endloop
  endfacet
  facet normal 0 -1 0
    outer loop
      vertex 37.005958557128906 0 17.652490615844727
      vertex 34.01191329956055 0 20.304981231689453
      vertex 32.916351318359375 0 18.717784881591797
    endloop
  endfacet
  facet normal 0 -1 0
    outer loop
      vertex 35.455482482910156 0 21.58386993408203
      vertex 37.005958557128906 0 17.652490615844727
      vertex 38.581581115722656 0 18.74006462097168
    endloop
  endfacet
  facet normal 0 -1 0
    outer loop
      vertex 36.116233825683594 0 15.95726203918457
      vertex 32.916351318359375 0 18.717784881591797
      vertex 32.23246383666992 0 16.91452407836914
    endloop
  endfacet
  facet normal 0 -1 0
    outer loop
      vertex 32.916351318359375 0 18.717784881591797
      vertex 36.116233825683594 0 15.95726203918457
      vertex 37.005958557128906 0 17.652490615844727
    endloop
  endfacet
  facet normal 0 -1 0
    outer loop
      vertex 32 0 15
      vertex 36.116233825683594 0 15.95726203918457
      vertex 32.23246383666992 0 16.91452407836914
    endloop
  endfacet
  facet normal 0 -1 0
    outer loop
      vertex 32 0 15
      vertex 36.116233825683594 0 14.042737007141113
      vertex 36.116233825683594 0 15.95726203918457
    endloop
  endfacet
  facet normal 0 -1 0
    outer loop
      vertex 32.23246383666992 0 13.085474014282227
      vertex 36.116233825683594 0 14.042737007141113
      vertex 32 0 15
    endloop
  endfacet
  facet normal 0 -1 0
    outer loop
      vertex 32.916351318359375 0 11.282214164733887
      vertex 36.116233825683594 0 14.042737007141113
      vertex 32.23246383666992 0 13.085474014282227
    endloop
  endfacet
  facet normal 0 -1 0
    outer loop
      vertex 36.116233825683594 0 14.042737007141113
      vertex 32.916351318359375 0 11.282214164733887
      vertex 37.005958557128906 0 12.347508430480957
    endloop
  endfacet
  facet normal 0 -1 0
    outer loop
      vertex 34.01191329956055 0 9.69501781463623
      vertex 37.005958557128906 0 12.347508430480957
      vertex 32.916351318359375 0 11.282214164733887
    endloop
  endfacet
  facet normal 0 -1 0
    outer loop
      vertex 35.455482482910156 0 8.416128158569336
      vertex 37.005958557128906 0 12.347508430480957
      vertex 34.01191329956055 0 9.69501781463623
    endloop
  endfacet
  facet normal 0 -1 0
    outer loop
      vertex 37.005958557128906 0 12.347508430480957
      vertex 35.455482482910156 0 8.416128158569336
      vertex 38.581581115722656 0 11.259934425354004
    endloop
  endfacet
  facet normal 0 -1 0
    outer loop
      vertex 44.544517517089844 0 21.58386993408203
      vertex 42.27225875854492 0 18.291934967041016
      vertex 45.98808670043945 0 20.304981231689453
    endloop
  endfacet
  facet normal 0 -1 0
    outer loop
      vertex 43.54182434082031 0 16.8588924407959
      vertex 45.98808670043945 0 20.304981231689453
      vertex 42.27225875854492 0 18.291934967041016
    endloop
  endfacet
  facet normal 0 -1 0
    outer loop
      vertex 45.98808670043945 0 20.304981231689453
      vertex 43.54182434082031 0 16.8588924407959
      vertex 47.083648681640625 0 18.717784881591797
    endloop
  endfacet
  facet normal 0 -1 0
    outer loop
      vertex 47.083648681640625 0 18.717784881591797
      vertex 43.54182434082031 0 16.8588924407959
      vertex 47.76753234863281 0 16.91452407836914
    endloop
  endfacet
  facet normal 0 -1 0
    outer loop
      vertex 44 0 15
      vertex 47.76753234863281 0 16.91452407836914
      vertex 43.54182434082031 0 16.8588924407959
    endloop
  endfacet
  facet normal 0 -1 0
    outer loop
      vertex 44 0 15
      vertex 48 0 15
      vertex 47.76753234863281 0 16.91452407836914
    endloop
  endfacet
  facet normal 0 -1 0
    outer loop
      vertex 47.76753234863281 0 13.085474014282227
      vertex 44 0 15
      vertex 43.54182434082031 0 13.141106605529785
    endloop
  endfacet
  facet normal 0 -1 0
    outer loop
      vertex 44 0 15
      vertex 47.76753234863281 0 13.085474014282227
      vertex 48 0 15
    endloop
  endfacet
  facet normal 0 -1 0
    outer loop
      vertex 45.98808670043945 0 9.69501781463623
      vertex 43.54182434082031 0 13.141106605529785
      vertex 42.27225875854492 0 11.708064079284668
    endloop
  endfacet
  facet normal 0 -1 0
    outer loop
      vertex 43.54182434082031 0 13.141106605529785
      vertex 47.083648681640625 0 11.282214164733887
      vertex 47.76753234863281 0 13.085474014282227
    endloop
  endfacet
  facet normal 0 -1 0
    outer loop
      vertex 42.83683776855469 0 7.519869804382324
      vertex 42.27225875854492 0 11.708064079284668
      vertex 40.482147216796875 0 11.02916431427002
    endloop
  endfacet
  facet normal 0 -1 0
    outer loop
      vertex 37.16316223144531 0 7.519869804382324
      vertex 38.581581115722656 0 11.259934425354004
      vertex 35.455482482910156 0 8.416128158569336
    endloop
  endfacet
  facet normal 0 -1 0
    outer loop
      vertex 43.54182434082031 0 13.141106605529785
      vertex 45.98808670043945 0 9.69501781463623
      vertex 47.083648681640625 0 11.282214164733887
    endloop
  endfacet
  facet normal 0 -1 0
    outer loop
      vertex 39.03570556640625 0 7.058328628540039
      vertex 38.581581115722656 0 11.259934425354004
      vertex 37.16316223144531 0 7.519869804382324
    endloop
  endfacet
  facet normal 0 -1 0
    outer loop
      vertex 42.27225875854492 0 11.708064079284668
      vertex 44.544517517089844 0 8.416128158569336
      vertex 45.98808670043945 0 9.69501781463623
    endloop
  endfacet
  facet normal 0 -1 0
    outer loop
      vertex 38.581581115722656 0 11.259934425354004
      vertex 39.03570556640625 0 7.058328628540039
      vertex 40.482147216796875 0 11.02916431427002
    endloop
  endfacet
  facet normal 0 -1 0
    outer loop
      vertex 42.27225875854492 0 11.708064079284668
      vertex 42.83683776855469 0 7.519869804382324
      vertex 44.544517517089844 0 8.416128158569336
    endloop
  endfacet
  facet normal 0 -1 0
    outer loop
      vertex 40.96429443359375 0 7.058328628540039
      vertex 40.482147216796875 0 11.02916431427002
      vertex 39.03570556640625 0 7.058328628540039
    endloop
  endfacet
  facet normal 0 -1 0
    outer loop
      vertex 40.482147216796875 0 11.02916431427002
      vertex 40.96429443359375 0 7.058328628540039
      vertex 42.83683776855469 0 7.519869804382324
    endloop
  endfacet
  facet normal -0.7485105699787656 0 -0.6631228593783081
    outer loop
      vertex 43.54182434082031 0 16.8588924407959
      vertex 42.27225875854492 15 18.291934967041016
      vertex 43.54182434082031 15 16.8588924407959
    endloop
  endfacet
  facet normal -0.7485105699787656 0 -0.6631228593783081
    outer loop
      vertex 42.27225875854492 15 18.291934967041016
      vertex 43.54182434082031 0 16.8588924407959
      vertex 42.27225875854492 0 18.291934967041016
    endloop
  endfacet
  facet normal -0.9709418674651503 0 0.23931546127086423
    outer loop
      vertex 43.54182434082031 0 13.141106605529785
      vertex 44 15 15
      vertex 43.54182434082031 15 13.141106605529785
    endloop
  endfacet
  facet normal -0.9709418674651503 0 0.23931546127086423
    outer loop
      vertex 44 15 15
      vertex 43.54182434082031 0 13.141106605529785
      vertex 44 0 15
    endloop
  endfacet
  facet normal -0.35460489016275015 0 0.9350162415020735
    outer loop
      vertex 40.482147216796875 15 11.02916431427002
      vertex 42.27225875854492 0 11.708064079284668
      vertex 42.27225875854492 15 11.708064079284668
    endloop
  endfacet
  facet normal -0.35460489016275015 0 0.9350162415020735
    outer loop
      vertex 42.27225875854492 0 11.708064079284668
      vertex 40.482147216796875 15 11.02916431427002
      vertex 40.482147216796875 0 11.02916431427002
    endloop
  endfacet
  facet normal -0.7485105699787656 0 0.6631228593783081
    outer loop
      vertex 42.27225875854492 0 11.708064079284668
      vertex 43.54182434082031 15 13.141106605529785
      vertex 42.27225875854492 15 11.708064079284668
    endloop
  endfacet
  facet normal -0.7485105699787656 0 0.6631228593783081
    outer loop
      vertex 43.54182434082031 15 13.141106605529785
      vertex 42.27225875854492 0 11.708064079284668
      vertex 43.54182434082031 0 13.141106605529785
    endloop
  endfacet
  facet normal 0.12053647737119244 0 0.9927088987326265
    outer loop
      vertex 38.581581115722656 15 11.259934425354004
      vertex 40.482147216796875 0 11.02916431427002
      vertex 40.482147216796875 15 11.02916431427002
    endloop
  endfacet
  facet normal 0.12053647737119244 0 0.9927088987326265
    outer loop
      vertex 40.482147216796875 0 11.02916431427002
      vertex 38.581581115722656 15 11.259934425354004
      vertex 38.581581115722656 0 11.259934425354004
    endloop
  endfacet
  facet normal 0.12053647737119244 0 -0.9927088987326265
    outer loop
      vertex 38.581581115722656 0 18.74006462097168
      vertex 40.482147216796875 15 18.970834732055664
      vertex 40.482147216796875 0 18.970834732055664
    endloop
  endfacet
  facet normal 0.12053647737119244 0 -0.9927088987326265
    outer loop
      vertex 40.482147216796875 15 18.970834732055664
      vertex 38.581581115722656 0 18.74006462097168
      vertex 38.581581115722656 15 18.74006462097168
    endloop
  endfacet
  facet normal -0.35460489016275015 0 -0.9350162415020735
    outer loop
      vertex 40.482147216796875 0 18.970834732055664
      vertex 42.27225875854492 15 18.291934967041016
      vertex 42.27225875854492 0 18.291934967041016
    endloop
  endfacet
  facet normal -0.35460489016275015 0 -0.9350162415020735
    outer loop
      vertex 42.27225875854492 15 18.291934967041016
      vertex 40.482147216796875 0 18.970834732055664
      vertex 40.482147216796875 15 18.970834732055664
    endloop
  endfacet
  facet normal 0.8854559957612744 0 0.46472322899808866
    outer loop
      vertex 36.116233825683594 0 14.042737007141113
      vertex 37.005958557128906 15 12.347508430480957
      vertex 36.116233825683594 15 14.042737007141113
    endloop
  endfacet
  facet normal 0.8854559957612744 0 0.46472322899808866
    outer loop
      vertex 37.005958557128906 15 12.347508430480957
      vertex 36.116233825683594 0 14.042737007141113
      vertex 37.005958557128906 0 12.347508430480957
    endloop
  endfacet
  facet normal -0.9709418389365371 0 -0.2393155770160725
    outer loop
      vertex 44 0 15
      vertex 43.54182434082031 15 16.8588924407959
      vertex 44 15 15
    endloop
  endfacet
  facet normal -0.9709418389365371 0 -0.2393155770160725
    outer loop
      vertex 43.54182434082031 15 16.8588924407959
      vertex 44 0 15
      vertex 43.54182434082031 0 16.8588924407959
    endloop
  endfacet
  facet normal 0.8854559957612744 0 -0.46472322899808866
    outer loop
      vertex 37.005958557128906 0 17.652490615844727
      vertex 36.116233825683594 15 15.95726203918457
      vertex 37.005958557128906 15 17.652490615844727
    endloop
  endfacet
  facet normal 0.8854559957612744 0 -0.46472322899808866
    outer loop
      vertex 36.116233825683594 15 15.95726203918457
      vertex 37.005958557128906 0 17.652490615844727
      vertex 36.116233825683594 0 15.95726203918457
    endloop
  endfacet
  facet normal 0.5680648453819412 0 -0.822983797799927
    outer loop
      vertex 37.005958557128906 0 17.652490615844727
      vertex 38.581581115722656 15 18.74006462097168
      vertex 38.581581115722656 0 18.74006462097168
    endloop
  endfacet
  facet normal 0.5680648453819412 0 -0.822983797799927
    outer loop
      vertex 38.581581115722656 15 18.74006462097168
      vertex 37.005958557128906 0 17.652490615844727
      vertex 37.005958557128906 15 17.652490615844727
    endloop
  endfacet
  facet normal 0.5680648453819412 0 0.822983797799927
    outer loop
      vertex 37.005958557128906 15 12.347508430480957
      vertex 38.581581115722656 0 11.259934425354004
      vertex 38.581581115722656 15 11.259934425354004
    endloop
  endfacet
  facet normal 0.5680648453819412 0 0.822983797799927
    outer loop
      vertex 38.581581115722656 0 11.259934425354004
      vertex 37.005958557128906 15 12.347508430480957
      vertex 37.005958557128906 0 12.347508430480957
    endloop
  endfacet
  facet normal 1 0 0
    outer loop
      vertex 36.116233825683594 0 15.95726203918457
      vertex 36.116233825683594 15 14.042737007141113
      vertex 36.116233825683594 15 15.95726203918457
    endloop
  endfacet
  facet normal 1 0 0
    outer loop
      vertex 36.116233825683594 15 14.042737007141113
      vertex 36.116233825683594 0 15.95726203918457
      vertex 36.116233825683594 0 14.042737007141113
    endloop
  endfacet
  facet normal 0 -1 0
    outer loop
      vertex 38.581581115722656 15 18.74006462097168
      vertex 42.27225875854492 15 18.291934967041016
      vertex 40.482147216796875 15 18.970834732055664
    endloop
  endfacet
  facet normal 0 -1 0
    outer loop
      vertex 37.005958557128906 15 17.652490615844727
      vertex 42.27225875854492 15 18.291934967041016
      vertex 38.581581115722656 15 18.74006462097168
    endloop
  endfacet
  facet normal 0 -1 0
    outer loop
      vertex 37.005958557128906 15 17.652490615844727
      vertex 43.54182434082031 15 16.8588924407959
      vertex 42.27225875854492 15 18.291934967041016
    endloop
  endfacet
  facet normal 0 -1 0
    outer loop
      vertex 36.116233825683594 15 15.95726203918457
      vertex 43.54182434082031 15 16.8588924407959
      vertex 37.005958557128906 15 17.652490615844727
    endloop
  endfacet
  facet normal 0 -1 0
    outer loop
      vertex 36.116233825683594 15 15.95726203918457
      vertex 44 15 15
      vertex 43.54182434082031 15 16.8588924407959
    endloop
  endfacet
  facet normal 0 -1 0
    outer loop
      vertex 36.116233825683594 15 14.042737007141113
      vertex 44 15 15
      vertex 36.116233825683594 15 15.95726203918457
    endloop
  endfacet
  facet normal 0 -1 0
    outer loop
      vertex 36.116233825683594 15 14.042737007141113
      vertex 43.54182434082031 15 13.141106605529785
      vertex 44 15 15
    endloop
  endfacet
  facet normal 0 -1 0
    outer loop
      vertex 37.005958557128906 15 12.347508430480957
      vertex 43.54182434082031 15 13.141106605529785
      vertex 36.116233825683594 15 14.042737007141113
    endloop
  endfacet
  facet normal 0 -1 0
    outer loop
      vertex 37.005958557128906 15 12.347508430480957
      vertex 42.27225875854492 15 11.708064079284668
      vertex 43.54182434082031 15 13.141106605529785
    endloop
  endfacet
  facet normal 0 -1 0
    outer loop
      vertex 38.581581115722656 15 11.259934425354004
      vertex 42.27225875854492 15 11.708064079284668
      vertex 37.005958557128906 15 12.347508430480957
    endloop
  endfacet
  facet normal 0 -1 0
    outer loop
      vertex 42.27225875854492 15 11.708064079284668
      vertex 38.581581115722656 15 11.259934425354004
      vertex 40.482147216796875 15 11.02916431427002
    endloop
  endfacet
  facet normal -0.7485105699787656 0 -0.6631228593783081
    outer loop
      vertex 43.54182434082031 553.7999877929688 16.8588924407959
      vertex 42.27225875854492 578.7999877929688 18.291934967041016
      vertex 43.54182434082031 578.7999877929688 16.8588924407959
    endloop
  endfacet
  facet normal -0.7485105699787656 0 -0.6631228593783081
    outer loop
      vertex 42.27225875854492 578.7999877929688 18.291934967041016
      vertex 43.54182434082031 553.7999877929688 16.8588924407959
      vertex 42.27225875854492 553.7999877929688 18.291934967041016
    endloop
  endfacet
  facet normal -0.9709418674651503 0 0.23931546127086423
    outer loop
      vertex 43.54182434082031 553.7999877929688 13.141106605529785
      vertex 44 578.7999877929688 15
      vertex 43.54182434082031 578.7999877929688 13.141106605529785
    endloop
  endfacet
  facet normal -0.9709418674651503 0 0.23931546127086423
    outer loop
      vertex 44 578.7999877929688 15
      vertex 43.54182434082031 553.7999877929688 13.141106605529785
      vertex 44 553.7999877929688 15
    endloop
  endfacet
  facet normal -0.35460489016275015 0 0.9350162415020735
    outer loop
      vertex 40.482147216796875 578.7999877929688 11.02916431427002
      vertex 42.27225875854492 553.7999877929688 11.708064079284668
      vertex 42.27225875854492 578.7999877929688 11.708064079284668
    endloop
  endfacet
  facet normal -0.35460489016275015 0 0.9350162415020735
    outer loop
      vertex 42.27225875854492 553.7999877929688 11.708064079284668
      vertex 40.482147216796875 578.7999877929688 11.02916431427002
      vertex 40.482147216796875 553.7999877929688 11.02916431427002
    endloop
  endfacet
  facet normal 0.12053647737119244 0 0.9927088987326265
    outer loop
      vertex 38.581581115722656 578.7999877929688 11.259934425354004
      vertex 40.482147216796875 553.7999877929688 11.02916431427002
      vertex 40.482147216796875 578.7999877929688 11.02916431427002
    endloop
  endfacet
  facet normal 0.12053647737119244 0 0.9927088987326265
    outer loop
      vertex 40.482147216796875 553.7999877929688 11.02916431427002
      vertex 38.581581115722656 578.7999877929688 11.259934425354004
      vertex 38.581581115722656 553.7999877929688 11.259934425354004
    endloop
  endfacet
  facet normal 0.12053647737119244 0 -0.9927088987326265
    outer loop
      vertex 38.581581115722656 553.7999877929688 18.74006462097168
      vertex 40.482147216796875 578.7999877929688 18.970834732055664
      vertex 40.482147216796875 553.7999877929688 18.970834732055664
    endloop
  endfacet
  facet normal 0.12053647737119244 0 -0.9927088987326265
    outer loop
      vertex 40.482147216796875 578.7999877929688 18.970834732055664
      vertex 38.581581115722656 553.7999877929688 18.74006462097168
      vertex 38.581581115722656 578.7999877929688 18.74006462097168
    endloop
  endfacet
  facet normal -0.35460489016275015 0 -0.9350162415020735
    outer loop
      vertex 40.482147216796875 553.7999877929688 18.970834732055664
      vertex 42.27225875854492 578.7999877929688 18.291934967041016
      vertex 42.27225875854492 553.7999877929688 18.291934967041016
    endloop
  endfacet
  facet normal -0.35460489016275015 0 -0.9350162415020735
    outer loop
      vertex 42.27225875854492 578.7999877929688 18.291934967041016
      vertex 40.482147216796875 553.7999877929688 18.970834732055664
      vertex 40.482147216796875 578.7999877929688 18.970834732055664
    endloop
  endfacet
  facet normal 0.8854559957612745 0 0.46472322899808866
    outer loop
      vertex 36.116233825683594 553.7999877929688 14.042737007141113
      vertex 37.005958557128906 578.7999877929688 12.347508430480957
      vertex 36.116233825683594 578.7999877929688 14.042737007141113
    endloop
  endfacet
  facet normal 0.8854559957612745 0 0.46472322899808866
    outer loop
      vertex 37.005958557128906 578.7999877929688 12.347508430480957
      vertex 36.116233825683594 553.7999877929688 14.042737007141113
      vertex 37.005958557128906 553.7999877929688 12.347508430480957
    endloop
  endfacet
  facet normal -0.9709418389365371 0 -0.23931557701607253
    outer loop
      vertex 44 553.7999877929688 15
      vertex 43.54182434082031 578.7999877929688 16.8588924407959
      vertex 44 578.7999877929688 15
    endloop
  endfacet
  facet normal -0.9709418389365371 0 -0.23931557701607253
    outer loop
      vertex 43.54182434082031 578.7999877929688 16.8588924407959
      vertex 44 553.7999877929688 15
      vertex 43.54182434082031 553.7999877929688 16.8588924407959
    endloop
  endfacet
  facet normal -0.7485105699787656 0 0.6631228593783081
    outer loop
      vertex 42.27225875854492 553.7999877929688 11.708064079284668
      vertex 43.54182434082031 578.7999877929688 13.141106605529785
      vertex 42.27225875854492 578.7999877929688 11.708064079284668
    endloop
  endfacet
  facet normal -0.7485105699787656 0 0.6631228593783081
    outer loop
      vertex 43.54182434082031 578.7999877929688 13.141106605529785
      vertex 42.27225875854492 553.7999877929688 11.708064079284668
      vertex 43.54182434082031 553.7999877929688 13.141106605529785
    endloop
  endfacet
  facet normal 0.8854559957612745 0 -0.46472322899808866
    outer loop
      vertex 37.005958557128906 553.7999877929688 17.652490615844727
      vertex 36.116233825683594 578.7999877929688 15.95726203918457
      vertex 37.005958557128906 578.7999877929688 17.652490615844727
    endloop
  endfacet
  facet normal 0.8854559957612745 0 -0.46472322899808866
    outer loop
      vertex 36.116233825683594 578.7999877929688 15.95726203918457
      vertex 37.005958557128906 553.7999877929688 17.652490615844727
      vertex 36.116233825683594 553.7999877929688 15.95726203918457
    endloop
  endfacet
  facet normal 0.5680648453819412 0 -0.822983797799927
    outer loop
      vertex 37.005958557128906 553.7999877929688 17.652490615844727
      vertex 38.581581115722656 578.7999877929688 18.74006462097168
      vertex 38.581581115722656 553.7999877929688 18.74006462097168
    endloop
  endfacet
  facet normal 0.5680648453819412 0 -0.822983797799927
    outer loop
      vertex 38.581581115722656 578.7999877929688 18.74006462097168
      vertex 37.005958557128906 553.7999877929688 17.652490615844727
      vertex 37.005958557128906 578.7999877929688 17.652490615844727
    endloop
  endfacet
  facet normal 0.5680648453819412 0 0.822983797799927
    outer loop
      vertex 37.005958557128906 578.7999877929688 12.347508430480957
      vertex 38.581581115722656 553.7999877929688 11.259934425354004
      vertex 38.581581115722656 578.7999877929688 11.259934425354004
    endloop
  endfacet
  facet normal 0.5680648453819412 0 0.822983797799927
    outer loop
      vertex 38.581581115722656 553.7999877929688 11.259934425354004
      vertex 37.005958557128906 578.7999877929688 12.347508430480957
      vertex 37.005958557128906 553.7999877929688 12.347508430480957
    endloop
  endfacet
  facet normal 1 0 0
    outer loop
      vertex 36.116233825683594 553.7999877929688 15.95726203918457
      vertex 36.116233825683594 578.7999877929688 14.042737007141113
      vertex 36.116233825683594 578.7999877929688 15.95726203918457
    endloop
  endfacet
  facet normal 1 0 0
    outer loop
      vertex 36.116233825683594 578.7999877929688 14.042737007141113
      vertex 36.116233825683594 553.7999877929688 15.95726203918457
      vertex 36.116233825683594 553.7999877929688 14.042737007141113
    endloop
  endfacet
  facet normal 0 1 0
    outer loop
      vertex 42.27225875854492 553.7999877929688 18.291934967041016
      vertex 38.581581115722656 553.7999877929688 18.74006462097168
      vertex 40.482147216796875 553.7999877929688 18.970834732055664
    endloop
  endfacet
  facet normal 0 1 0
    outer loop
      vertex 42.27225875854492 553.7999877929688 18.291934967041016
      vertex 37.005958557128906 553.7999877929688 17.652490615844727
      vertex 38.581581115722656 553.7999877929688 18.74006462097168
    endloop
  endfacet
  facet normal 0 1 0
    outer loop
      vertex 43.54182434082031 553.7999877929688 16.8588924407959
      vertex 37.005958557128906 553.7999877929688 17.652490615844727
      vertex 42.27225875854492 553.7999877929688 18.291934967041016
    endloop
  endfacet
  facet normal 0 1 0
    outer loop
      vertex 43.54182434082031 553.7999877929688 16.8588924407959
      vertex 36.116233825683594 553.7999877929688 15.95726203918457
      vertex 37.005958557128906 553.7999877929688 17.652490615844727
    endloop
  endfacet
  facet normal 0 1 0
    outer loop
      vertex 44 553.7999877929688 15
      vertex 36.116233825683594 553.7999877929688 15.95726203918457
      vertex 43.54182434082031 553.7999877929688 16.8588924407959
    endloop
  endfacet
  facet normal 0 1 0
    outer loop
      vertex 44 553.7999877929688 15
      vertex 36.116233825683594 553.7999877929688 14.042737007141113
      vertex 36.116233825683594 553.7999877929688 15.95726203918457
    endloop
  endfacet
  facet normal 0 1 0
    outer loop
      vertex 43.54182434082031 553.7999877929688 13.141106605529785
      vertex 36.116233825683594 553.7999877929688 14.042737007141113
      vertex 44 553.7999877929688 15
    endloop
  endfacet
  facet normal 0 1 0
    outer loop
      vertex 43.54182434082031 553.7999877929688 13.141106605529785
      vertex 37.005958557128906 553.7999877929688 12.347508430480957
      vertex 36.116233825683594 553.7999877929688 14.042737007141113
    endloop
  endfacet
  facet normal 0 1 0
    outer loop
      vertex 42.27225875854492 553.7999877929688 11.708064079284668
      vertex 37.005958557128906 553.7999877929688 12.347508430480957
      vertex 43.54182434082031 553.7999877929688 13.141106605529785
    endloop
  endfacet
  facet normal 0 1 0
    outer loop
      vertex 42.27225875854492 553.7999877929688 11.708064079284668
      vertex 38.581581115722656 553.7999877929688 11.259934425354004
      vertex 37.005958557128906 553.7999877929688 12.347508430480957
    endloop
  endfacet
  facet normal 0 1 0
    outer loop
      vertex 38.581581115722656 553.7999877929688 11.259934425354004
      vertex 42.27225875854492 553.7999877929688 11.708064079284668
      vertex 40.482147216796875 553.7999877929688 11.02916431427002
    endloop
  endfacet
  facet normal -0.935016749550859 0 -0.3546035505453187
    outer loop
      vertex 47.76753234863281 578.7999877929688 16.91452407836914
      vertex 47.083648681640625 588.7999877929688 18.717784881591797
      vertex 47.76753234863281 588.7999877929688 16.91452407836914
    endloop
  endfacet
  facet normal -0.935016749550859 0 -0.3546035505453187
    outer loop
      vertex 47.083648681640625 588.7999877929688 18.717784881591797
      vertex 47.76753234863281 578.7999877929688 16.91452407836914
      vertex 47.083648681640625 578.7999877929688 18.717784881591797
    endloop
  endfacet
  facet normal -0.663122078103305 0 -0.7485112621276678
    outer loop
      vertex 44.544517517089844 578.7999877929688 21.58386993408203
      vertex 45.98808670043945 588.7999877929688 20.304981231689453
      vertex 45.98808670043945 578.7999877929688 20.304981231689453
    endloop
  endfacet
  facet normal -0.663122078103305 0 -0.7485112621276678
    outer loop
      vertex 45.98808670043945 588.7999877929688 20.304981231689453
      vertex 44.544517517089844 578.7999877929688 21.58386993408203
      vertex 44.544517517089844 588.7999877929688 21.58386993408203
    endloop
  endfacet
  facet normal -0.8229840008020425 0 -0.5680645512825665
    outer loop
      vertex 47.083648681640625 578.7999877929688 18.717784881591797
      vertex 45.98808670043945 588.7999877929688 20.304981231689453
      vertex 47.083648681640625 588.7999877929688 18.717784881591797
    endloop
  endfacet
  facet normal -0.8229840008020425 0 -0.5680645512825665
    outer loop
      vertex 45.98808670043945 588.7999877929688 20.304981231689453
      vertex 47.083648681640625 578.7999877929688 18.717784881591797
      vertex 45.98808670043945 578.7999877929688 20.304981231689453
    endloop
  endfacet
  facet normal -0.46472310552598767 0 -0.8854560605644314
    outer loop
      vertex 42.83683776855469 578.7999877929688 22.48012924194336
      vertex 44.544517517089844 588.7999877929688 21.58386993408203
      vertex 44.544517517089844 578.7999877929688 21.58386993408203
    endloop
  endfacet
  facet normal -0.46472310552598767 0 -0.8854560605644314
    outer loop
      vertex 44.544517517089844 588.7999877929688 21.58386993408203
      vertex 42.83683776855469 578.7999877929688 22.48012924194336
      vertex 42.83683776855469 588.7999877929688 22.48012924194336
    endloop
  endfacet
  facet normal -0.9927087432305339 0 0.12053775804142759
    outer loop
      vertex 47.76753234863281 578.7999877929688 13.085474014282227
      vertex 48 588.7999877929688 15
      vertex 47.76753234863281 588.7999877929688 13.085474014282227
    endloop
  endfacet
  facet normal -0.9927087432305339 0 0.12053775804142759
    outer loop
      vertex 48 588.7999877929688 15
      vertex 47.76753234863281 578.7999877929688 13.085474014282227
      vertex 48 578.7999877929688 15
    endloop
  endfacet
  facet normal 0.23931600460613686 0 0.9709417335449926
    outer loop
      vertex 37.16316223144531 588.7999877929688 7.519869804382324
      vertex 39.03570556640625 578.7999877929688 7.058328628540039
      vertex 39.03570556640625 588.7999877929688 7.058328628540039
    endloop
  endfacet
  facet normal 0.23931600460613686 0 0.9709417335449926
    outer loop
      vertex 39.03570556640625 578.7999877929688 7.058328628540039
      vertex 37.16316223144531 588.7999877929688 7.519869804382324
      vertex 37.16316223144531 578.7999877929688 7.519869804382324
    endloop
  endfacet
  facet normal 0.46472310552598767 0 -0.8854560605644314
    outer loop
      vertex 35.455482482910156 578.7999877929688 21.58386993408203
      vertex 37.16316223144531 588.7999877929688 22.48012924194336
      vertex 37.16316223144531 578.7999877929688 22.48012924194336
    endloop
  endfacet
  facet normal 0.46472310552598767 0 -0.8854560605644314
    outer loop
      vertex 37.16316223144531 588.7999877929688 22.48012924194336
      vertex 35.455482482910156 578.7999877929688 21.58386993408203
      vertex 35.455482482910156 588.7999877929688 21.58386993408203
    endloop
  endfacet
  facet normal 0.23931553843241107 0 -0.9709418484465511
    outer loop
      vertex 37.16316223144531 578.7999877929688 22.48012924194336
      vertex 39.03570556640625 588.7999877929688 22.941669464111328
      vertex 39.03570556640625 578.7999877929688 22.941669464111328
    endloop
  endfacet
  facet normal 0.23931553843241107 0 -0.9709418484465511
    outer loop
      vertex 39.03570556640625 588.7999877929688 22.941669464111328
      vertex 37.16316223144531 578.7999877929688 22.48012924194336
      vertex 37.16316223144531 588.7999877929688 22.48012924194336
    endloop
  endfacet
  facet normal 0.8229840008020425 0 -0.5680645512825665
    outer loop
      vertex 34.01191329956055 578.7999877929688 20.304981231689453
      vertex 32.916351318359375 588.7999877929688 18.717784881591797
      vertex 34.01191329956055 588.7999877929688 20.304981231689453
    endloop
  endfacet
  facet normal 0.8229840008020425 0 -0.5680645512825665
    outer loop
      vertex 32.916351318359375 588.7999877929688 18.717784881591797
      vertex 34.01191329956055 578.7999877929688 20.304981231689453
      vertex 32.916351318359375 578.7999877929688 18.717784881591797
    endloop
  endfacet
  facet normal 0 -1 0
    outer loop
      vertex 37.16316223144531 588.7999877929688 22.48012924194336
      vertex 40.96429443359375 588.7999877929688 22.941669464111328
      vertex 39.03570556640625 588.7999877929688 22.941669464111328
    endloop
  endfacet
  facet normal 0 -1 0
    outer loop
      vertex 37.16316223144531 588.7999877929688 22.48012924194336
      vertex 42.83683776855469 588.7999877929688 22.48012924194336
      vertex 40.96429443359375 588.7999877929688 22.941669464111328
    endloop
  endfacet
  facet normal 0 -1 0
    outer loop
      vertex 35.455482482910156 588.7999877929688 21.58386993408203
      vertex 42.83683776855469 588.7999877929688 22.48012924194336
      vertex 37.16316223144531 588.7999877929688 22.48012924194336
    endloop
  endfacet
  facet normal 0 -1 0
    outer loop
      vertex 35.455482482910156 588.7999877929688 21.58386993408203
      vertex 44.544517517089844 588.7999877929688 21.58386993408203
      vertex 42.83683776855469 588.7999877929688 22.48012924194336
    endloop
  endfacet
  facet normal 0 -1 0
    outer loop
      vertex 34.01191329956055 588.7999877929688 20.304981231689453
      vertex 44.544517517089844 588.7999877929688 21.58386993408203
      vertex 35.455482482910156 588.7999877929688 21.58386993408203
    endloop
  endfacet
  facet normal 0 -1 0
    outer loop
      vertex 34.01191329956055 588.7999877929688 20.304981231689453
      vertex 45.98808670043945 588.7999877929688 20.304981231689453
      vertex 44.544517517089844 588.7999877929688 21.58386993408203
    endloop
  endfacet
  facet normal 0 -1 0
    outer loop
      vertex 32.916351318359375 588.7999877929688 18.717784881591797
      vertex 45.98808670043945 588.7999877929688 20.304981231689453
      vertex 34.01191329956055 588.7999877929688 20.304981231689453
    endloop
  endfacet
  facet normal 0 -1 0
    outer loop
      vertex 32.916351318359375 588.7999877929688 18.717784881591797
      vertex 47.083648681640625 588.7999877929688 18.717784881591797
      vertex 45.98808670043945 588.7999877929688 20.304981231689453
    endloop
  endfacet
  facet normal 0 -1 0
    outer loop
      vertex 32.23246383666992 588.7999877929688 16.91452407836914
      vertex 47.083648681640625 588.7999877929688 18.717784881591797
      vertex 32.916351318359375 588.7999877929688 18.717784881591797
    endloop
  endfacet
  facet normal 0 -1 0
    outer loop
      vertex 32.23246383666992 588.7999877929688 16.91452407836914
      vertex 47.76753234863281 588.7999877929688 16.91452407836914
      vertex 47.083648681640625 588.7999877929688 18.717784881591797
    endloop
  endfacet
  facet normal 0 -1 0
    outer loop
      vertex 32 588.7999877929688 15
      vertex 47.76753234863281 588.7999877929688 16.91452407836914
      vertex 32.23246383666992 588.7999877929688 16.91452407836914
    endloop
  endfacet
  facet normal 0 -1 0
    outer loop
      vertex 32 588.7999877929688 15
      vertex 48 588.7999877929688 15
      vertex 47.76753234863281 588.7999877929688 16.91452407836914
    endloop
  endfacet
  facet normal 0 -1 0
    outer loop
      vertex 32.23246383666992 588.7999877929688 13.085474014282227
      vertex 48 588.7999877929688 15
      vertex 32 588.7999877929688 15
    endloop
  endfacet
  facet normal 0 -1 0
    outer loop
      vertex 32.23246383666992 588.7999877929688 13.085474014282227
      vertex 47.76753234863281 588.7999877929688 13.085474014282227
      vertex 48 588.7999877929688 15
    endloop
  endfacet
  facet normal 0 -1 0
    outer loop
      vertex 32.916351318359375 588.7999877929688 11.282214164733887
      vertex 47.76753234863281 588.7999877929688 13.085474014282227
      vertex 32.23246383666992 588.7999877929688 13.085474014282227
    endloop
  endfacet
  facet normal 0 -1 0
    outer loop
      vertex 32.916351318359375 588.7999877929688 11.282214164733887
      vertex 47.083648681640625 588.7999877929688 11.282214164733887
      vertex 47.76753234863281 588.7999877929688 13.085474014282227
    endloop
  endfacet
  facet normal 0 -1 0
    outer loop
      vertex 34.01191329956055 588.7999877929688 9.69501781463623
      vertex 47.083648681640625 588.7999877929688 11.282214164733887
      vertex 32.916351318359375 588.7999877929688 11.282214164733887
    endloop
  endfacet
  facet normal 0 -1 0
    outer loop
      vertex 34.01191329956055 588.7999877929688 9.69501781463623
      vertex 45.98808670043945 588.7999877929688 9.69501781463623
      vertex 47.083648681640625 588.7999877929688 11.282214164733887
    endloop
  endfacet
  facet normal 0 -1 0
    outer loop
      vertex 35.455482482910156 588.7999877929688 8.416128158569336
      vertex 45.98808670043945 588.7999877929688 9.69501781463623
      vertex 34.01191329956055 588.7999877929688 9.69501781463623
    endloop
  endfacet
  facet normal 0 -1 0
    outer loop
      vertex 35.455482482910156 588.7999877929688 8.416128158569336
      vertex 44.544517517089844 588.7999877929688 8.416128158569336
      vertex 45.98808670043945 588.7999877929688 9.69501781463623
    endloop
  endfacet
  facet normal 0 -1 0
    outer loop
      vertex 37.16316223144531 588.7999877929688 7.519869804382324
      vertex 44.544517517089844 588.7999877929688 8.416128158569336
      vertex 35.455482482910156 588.7999877929688 8.416128158569336
    endloop
  endfacet
  facet normal 0 -1 0
    outer loop
      vertex 37.16316223144531 588.7999877929688 7.519869804382324
      vertex 42.83683776855469 588.7999877929688 7.519869804382324
      vertex 44.544517517089844 588.7999877929688 8.416128158569336
    endloop
  endfacet
  facet normal 0 -1 0
    outer loop
      vertex 39.03570556640625 588.7999877929688 7.058328628540039
      vertex 42.83683776855469 588.7999877929688 7.519869804382324
      vertex 37.16316223144531 588.7999877929688 7.519869804382324
    endloop
  endfacet
  facet normal 0 -1 0
    outer loop
      vertex 42.83683776855469 588.7999877929688 7.519869804382324
      vertex 39.03570556640625 588.7999877929688 7.058328628540039
      vertex 40.96429443359375 588.7999877929688 7.058328628540039
    endloop
  endfacet
  facet normal -0.9927087288611708 0 -0.12053787638264797
    outer loop
      vertex 48 578.7999877929688 15
      vertex 47.76753234863281 588.7999877929688 16.91452407836914
      vertex 48 588.7999877929688 15
    endloop
  endfacet
  facet normal -0.9927087288611708 0 -0.12053787638264797
    outer loop
      vertex 47.76753234863281 588.7999877929688 16.91452407836914
      vertex 48 578.7999877929688 15
      vertex 47.76753234863281 578.7999877929688 16.91452407836914
    endloop
  endfacet
  facet normal 0.6631223551527524 0 0.7485110166835669
    outer loop
      vertex 34.01191329956055 588.7999877929688 9.69501781463623
      vertex 35.455482482910156 578.7999877929688 8.416128158569336
      vertex 35.455482482910156 588.7999877929688 8.416128158569336
    endloop
  endfacet
  facet normal 0.6631223551527524 0 0.7485110166835669
    outer loop
      vertex 35.455482482910156 578.7999877929688 8.416128158569336
      vertex 34.01191329956055 588.7999877929688 9.69501781463623
      vertex 34.01191329956055 578.7999877929688 9.69501781463623
    endloop
  endfacet
  facet normal 0 0 1
    outer loop
      vertex 39.03570556640625 588.7999877929688 7.058328628540039
      vertex 40.96429443359375 578.7999877929688 7.058328628540039
      vertex 40.96429443359375 588.7999877929688 7.058328628540039
    endloop
  endfacet
  facet normal 0 0 1
    outer loop
      vertex 40.96429443359375 578.7999877929688 7.058328628540039
      vertex 39.03570556640625 588.7999877929688 7.058328628540039
      vertex 39.03570556640625 578.7999877929688 7.058328628540039
    endloop
  endfacet
  facet normal -0.9350166873713345 0 0.35460371449991324
    outer loop
      vertex 47.083648681640625 578.7999877929688 11.282214164733887
      vertex 47.76753234863281 588.7999877929688 13.085474014282227
      vertex 47.083648681640625 588.7999877929688 11.282214164733887
    endloop
  endfacet
  facet normal -0.9350166873713345 0 0.35460371449991324
    outer loop
      vertex 47.76753234863281 588.7999877929688 13.085474014282227
      vertex 47.083648681640625 578.7999877929688 11.282214164733887
      vertex 47.76753234863281 578.7999877929688 13.085474014282227
    endloop
  endfacet
  facet normal -0.23931553843241107 0 -0.9709418484465511
    outer loop
      vertex 40.96429443359375 578.7999877929688 22.941669464111328
      vertex 42.83683776855469 588.7999877929688 22.48012924194336
      vertex 42.83683776855469 578.7999877929688 22.48012924194336
    endloop
  endfacet
  facet normal -0.23931553843241107 0 -0.9709418484465511
    outer loop
      vertex 42.83683776855469 588.7999877929688 22.48012924194336
      vertex 40.96429443359375 578.7999877929688 22.941669464111328
      vertex 40.96429443359375 588.7999877929688 22.941669464111328
    endloop
  endfacet
  facet normal 0.8229840008020425 0 0.5680645512825665
    outer loop
      vertex 32.916351318359375 578.7999877929688 11.282214164733887
      vertex 34.01191329956055 588.7999877929688 9.69501781463623
      vertex 32.916351318359375 588.7999877929688 11.282214164733887
    endloop
  endfacet
  facet normal 0.8229840008020425 0 0.5680645512825665
    outer loop
      vertex 34.01191329956055 588.7999877929688 9.69501781463623
      vertex 32.916351318359375 578.7999877929688 11.282214164733887
      vertex 34.01191329956055 578.7999877929688 9.69501781463623
    endloop
  endfacet
  facet normal 0.9927089799108868 0 0.12053580880504568
    outer loop
      vertex 32 578.7999877929688 15
      vertex 32.23246383666992 588.7999877929688 13.085474014282227
      vertex 32 588.7999877929688 15
    endloop
  endfacet
  facet normal 0.9927089799108868 0 0.12053580880504568
    outer loop
      vertex 32.23246383666992 588.7999877929688 13.085474014282227
      vertex 32 578.7999877929688 15
      vertex 32.23246383666992 578.7999877929688 13.085474014282227
    endloop
  endfacet
  facet normal 0.9350160315515359 0 0.35460544375632125
    outer loop
      vertex 32.23246383666992 578.7999877929688 13.085474014282227
      vertex 32.916351318359375 588.7999877929688 11.282214164733887
      vertex 32.23246383666992 588.7999877929688 13.085474014282227
    endloop
  endfacet
  facet normal 0.9350160315515359 0 0.35460544375632125
    outer loop
      vertex 32.916351318359375 588.7999877929688 11.282214164733887
      vertex 32.23246383666992 578.7999877929688 13.085474014282227
      vertex 32.916351318359375 578.7999877929688 11.282214164733887
    endloop
  endfacet
  facet normal 0.9927089655419848 0 -0.12053592714440876
    outer loop
      vertex 32.23246383666992 578.7999877929688 16.91452407836914
      vertex 32 588.7999877929688 15
      vertex 32.23246383666992 588.7999877929688 16.91452407836914
    endloop
  endfacet
  facet normal 0.9927089655419848 0 -0.12053592714440876
    outer loop
      vertex 32 588.7999877929688 15
      vertex 32.23246383666992 578.7999877929688 16.91452407836914
      vertex 32 578.7999877929688 15
    endloop
  endfacet
  facet normal 0.663122078103305 0 -0.7485112621276678
    outer loop
      vertex 34.01191329956055 578.7999877929688 20.304981231689453
      vertex 35.455482482910156 588.7999877929688 21.58386993408203
      vertex 35.455482482910156 578.7999877929688 21.58386993408203
    endloop
  endfacet
  facet normal 0.663122078103305 0 -0.7485112621276678
    outer loop
      vertex 35.455482482910156 588.7999877929688 21.58386993408203
      vertex 34.01191329956055 578.7999877929688 20.304981231689453
      vertex 34.01191329956055 588.7999877929688 20.304981231689453
    endloop
  endfacet
  facet normal -0.6631223551527524 0 0.7485110166835669
    outer loop
      vertex 44.544517517089844 588.7999877929688 8.416128158569336
      vertex 45.98808670043945 578.7999877929688 9.69501781463623
      vertex 45.98808670043945 588.7999877929688 9.69501781463623
    endloop
  endfacet
  facet normal -0.6631223551527524 0 0.7485110166835669
    outer loop
      vertex 45.98808670043945 578.7999877929688 9.69501781463623
      vertex 44.544517517089844 588.7999877929688 8.416128158569336
      vertex 44.544517517089844 578.7999877929688 8.416128158569336
    endloop
  endfacet
  facet normal -0.4647227178268341 0 0.8854562640444986
    outer loop
      vertex 42.83683776855469 588.7999877929688 7.519869804382324
      vertex 44.544517517089844 578.7999877929688 8.416128158569336
      vertex 44.544517517089844 588.7999877929688 8.416128158569336
    endloop
  endfacet
  facet normal -0.4647227178268341 0 0.8854562640444986
    outer loop
      vertex 44.544517517089844 578.7999877929688 8.416128158569336
      vertex 42.83683776855469 588.7999877929688 7.519869804382324
      vertex 42.83683776855469 578.7999877929688 7.519869804382324
    endloop
  endfacet
  facet normal 0 0 -1
    outer loop
      vertex 39.03570556640625 578.7999877929688 22.941669464111328
      vertex 40.96429443359375 588.7999877929688 22.941669464111328
      vertex 40.96429443359375 578.7999877929688 22.941669464111328
    endloop
  endfacet
  facet normal 0 0 -1
    outer loop
      vertex 40.96429443359375 588.7999877929688 22.941669464111328
      vertex 39.03570556640625 578.7999877929688 22.941669464111328
      vertex 39.03570556640625 588.7999877929688 22.941669464111328
    endloop
  endfacet
  facet normal -0.23931600460613686 0 0.9709417335449926
    outer loop
      vertex 40.96429443359375 588.7999877929688 7.058328628540039
      vertex 42.83683776855469 578.7999877929688 7.519869804382324
      vertex 42.83683776855469 588.7999877929688 7.519869804382324
    endloop
  endfacet
  facet normal -0.23931600460613686 0 0.9709417335449926
    outer loop
      vertex 42.83683776855469 578.7999877929688 7.519869804382324
      vertex 40.96429443359375 588.7999877929688 7.058328628540039
      vertex 40.96429443359375 578.7999877929688 7.058328628540039
    endloop
  endfacet
  facet normal -0.8229840008020425 0 0.5680645512825665
    outer loop
      vertex 45.98808670043945 578.7999877929688 9.69501781463623
      vertex 47.083648681640625 588.7999877929688 11.282214164733887
      vertex 45.98808670043945 588.7999877929688 9.69501781463623
    endloop
  endfacet
  facet normal -0.8229840008020425 0 0.5680645512825665
    outer loop
      vertex 47.083648681640625 588.7999877929688 11.282214164733887
      vertex 45.98808670043945 578.7999877929688 9.69501781463623
      vertex 47.083648681640625 578.7999877929688 11.282214164733887
    endloop
  endfacet
  facet normal 0.935016093731623 0 -0.3546052798011571
    outer loop
      vertex 32.916351318359375 578.7999877929688 18.717784881591797
      vertex 32.23246383666992 588.7999877929688 16.91452407836914
      vertex 32.916351318359375 588.7999877929688 18.717784881591797
    endloop
  endfacet
  facet normal 0.935016093731623 0 -0.3546052798011571
    outer loop
      vertex 32.23246383666992 588.7999877929688 16.91452407836914
      vertex 32.916351318359375 578.7999877929688 18.717784881591797
      vertex 32.23246383666992 578.7999877929688 16.91452407836914
    endloop
  endfacet
  facet normal 0.4647227178268341 0 0.8854562640444986
    outer loop
      vertex 35.455482482910156 588.7999877929688 8.416128158569336
      vertex 37.16316223144531 578.7999877929688 7.519869804382324
      vertex 37.16316223144531 588.7999877929688 7.519869804382324
    endloop
  endfacet
  facet normal 0.4647227178268341 0 0.8854562640444986
    outer loop
      vertex 37.16316223144531 578.7999877929688 7.519869804382324
      vertex 35.455482482910156 588.7999877929688 8.416128158569336
      vertex 35.455482482910156 578.7999877929688 8.416128158569336
    endloop
  endfacet
  facet normal 0 1 0
    outer loop
      vertex 40.482147216796875 578.7999877929688 18.970834732055664
      vertex 40.96429443359375 578.7999877929688 22.941669464111328
      vertex 42.83683776855469 578.7999877929688 22.48012924194336
    endloop
  endfacet
  facet normal 0 1 0
    outer loop
      vertex 40.96429443359375 578.7999877929688 22.941669464111328
      vertex 40.482147216796875 578.7999877929688 18.970834732055664
      vertex 39.03570556640625 578.7999877929688 22.941669464111328
    endloop
  endfacet
  facet normal 0 1 0
    outer loop
      vertex 42.27225875854492 578.7999877929688 18.291934967041016
      vertex 42.83683776855469 578.7999877929688 22.48012924194336
      vertex 44.544517517089844 578.7999877929688 21.58386993408203
    endloop
  endfacet
  facet normal 0 1 0
    outer loop
      vertex 38.581581115722656 578.7999877929688 18.74006462097168
      vertex 39.03570556640625 578.7999877929688 22.941669464111328
      vertex 40.482147216796875 578.7999877929688 18.970834732055664
    endloop
  endfacet
  facet normal 0 1 0
    outer loop
      vertex 42.27225875854492 578.7999877929688 18.291934967041016
      vertex 44.544517517089844 578.7999877929688 21.58386993408203
      vertex 45.98808670043945 578.7999877929688 20.304981231689453
    endloop
  endfacet
  facet normal 0 1 0
    outer loop
      vertex 39.03570556640625 578.7999877929688 22.941669464111328
      vertex 38.581581115722656 578.7999877929688 18.74006462097168
      vertex 37.16316223144531 578.7999877929688 22.48012924194336
    endloop
  endfacet
  facet normal 0 1 0
    outer loop
      vertex 37.16316223144531 578.7999877929688 22.48012924194336
      vertex 38.581581115722656 578.7999877929688 18.74006462097168
      vertex 35.455482482910156 578.7999877929688 21.58386993408203
    endloop
  endfacet
  facet normal 0 1 0
    outer loop
      vertex 43.54182434082031 578.7999877929688 16.8588924407959
      vertex 45.98808670043945 578.7999877929688 20.304981231689453
      vertex 47.083648681640625 578.7999877929688 18.717784881591797
    endloop
  endfacet
  facet normal 0 1 0
    outer loop
      vertex 42.83683776855469 578.7999877929688 22.48012924194336
      vertex 42.27225875854492 578.7999877929688 18.291934967041016
      vertex 40.482147216796875 578.7999877929688 18.970834732055664
    endloop
  endfacet
  facet normal 0 1 0
    outer loop
      vertex 43.54182434082031 578.7999877929688 16.8588924407959
      vertex 47.083648681640625 578.7999877929688 18.717784881591797
      vertex 47.76753234863281 578.7999877929688 16.91452407836914
    endloop
  endfacet
  facet normal 0 1 0
    outer loop
      vertex 45.98808670043945 578.7999877929688 20.304981231689453
      vertex 43.54182434082031 578.7999877929688 16.8588924407959
      vertex 42.27225875854492 578.7999877929688 18.291934967041016
    endloop
  endfacet
  facet normal 0 1 0
    outer loop
      vertex 44 578.7999877929688 15
      vertex 47.76753234863281 578.7999877929688 16.91452407836914
      vertex 48 578.7999877929688 15
    endloop
  endfacet
  facet normal 0 1 0
    outer loop
      vertex 47.76753234863281 578.7999877929688 16.91452407836914
      vertex 44 578.7999877929688 15
      vertex 43.54182434082031 578.7999877929688 16.8588924407959
    endloop
  endfacet
  facet normal 0 1 0
    outer loop
      vertex 47.76753234863281 578.7999877929688 13.085474014282227
      vertex 44 578.7999877929688 15
      vertex 48 578.7999877929688 15
    endloop
  endfacet
  facet normal 0 1 0
    outer loop
      vertex 44 578.7999877929688 15
      vertex 47.76753234863281 578.7999877929688 13.085474014282227
      vertex 43.54182434082031 578.7999877929688 13.141106605529785
    endloop
  endfacet
  facet normal 0 1 0
    outer loop
      vertex 47.083648681640625 578.7999877929688 11.282214164733887
      vertex 43.54182434082031 578.7999877929688 13.141106605529785
      vertex 47.76753234863281 578.7999877929688 13.085474014282227
    endloop
  endfacet
  facet normal 0 1 0
    outer loop
      vertex 45.98808670043945 578.7999877929688 9.69501781463623
      vertex 43.54182434082031 578.7999877929688 13.141106605529785
      vertex 47.083648681640625 578.7999877929688 11.282214164733887
    endloop
  endfacet
  facet normal 0 1 0
    outer loop
      vertex 43.54182434082031 578.7999877929688 13.141106605529785
      vertex 45.98808670043945 578.7999877929688 9.69501781463623
      vertex 42.27225875854492 578.7999877929688 11.708064079284668
    endloop
  endfacet
  facet normal 0 1 0
    outer loop
      vertex 44.544517517089844 578.7999877929688 8.416128158569336
      vertex 42.27225875854492 578.7999877929688 11.708064079284668
      vertex 45.98808670043945 578.7999877929688 9.69501781463623
    endloop
  endfacet
  facet normal 0 1 0
    outer loop
      vertex 37.005958557128906 578.7999877929688 17.652490615844727
      vertex 35.455482482910156 578.7999877929688 21.58386993408203
      vertex 38.581581115722656 578.7999877929688 18.74006462097168
    endloop
  endfacet
  facet normal 0 1 0
    outer loop
      vertex 35.455482482910156 578.7999877929688 21.58386993408203
      vertex 37.005958557128906 578.7999877929688 17.652490615844727
      vertex 34.01191329956055 578.7999877929688 20.304981231689453
    endloop
  endfacet
  facet normal 0 1 0
    outer loop
      vertex 34.01191329956055 578.7999877929688 20.304981231689453
      vertex 37.005958557128906 578.7999877929688 17.652490615844727
      vertex 32.916351318359375 578.7999877929688 18.717784881591797
    endloop
  endfacet
  facet normal 0 1 0
    outer loop
      vertex 36.116233825683594 578.7999877929688 15.95726203918457
      vertex 32.916351318359375 578.7999877929688 18.717784881591797
      vertex 37.005958557128906 578.7999877929688 17.652490615844727
    endloop
  endfacet
  facet normal 0 1 0
    outer loop
      vertex 32.916351318359375 578.7999877929688 18.717784881591797
      vertex 36.116233825683594 578.7999877929688 15.95726203918457
      vertex 32.23246383666992 578.7999877929688 16.91452407836914
    endloop
  endfacet
  facet normal 0 1 0
    outer loop
      vertex 36.116233825683594 578.7999877929688 15.95726203918457
      vertex 32 578.7999877929688 15
      vertex 32.23246383666992 578.7999877929688 16.91452407836914
    endloop
  endfacet
  facet normal 0 1 0
    outer loop
      vertex 36.116233825683594 578.7999877929688 14.042737007141113
      vertex 32 578.7999877929688 15
      vertex 36.116233825683594 578.7999877929688 15.95726203918457
    endloop
  endfacet
  facet normal 0 1 0
    outer loop
      vertex 36.116233825683594 578.7999877929688 14.042737007141113
      vertex 32.23246383666992 578.7999877929688 13.085474014282227
      vertex 32 578.7999877929688 15
    endloop
  endfacet
  facet normal 0 1 0
    outer loop
      vertex 32.916351318359375 578.7999877929688 11.282214164733887
      vertex 36.116233825683594 578.7999877929688 14.042737007141113
      vertex 37.005958557128906 578.7999877929688 12.347508430480957
    endloop
  endfacet
  facet normal 0 1 0
    outer loop
      vertex 36.116233825683594 578.7999877929688 14.042737007141113
      vertex 32.916351318359375 578.7999877929688 11.282214164733887
      vertex 32.23246383666992 578.7999877929688 13.085474014282227
    endloop
  endfacet
  facet normal 0 1 0
    outer loop
      vertex 35.455482482910156 578.7999877929688 8.416128158569336
      vertex 37.005958557128906 578.7999877929688 12.347508430480957
      vertex 38.581581115722656 578.7999877929688 11.259934425354004
    endloop
  endfacet
  facet normal 0 1 0
    outer loop
      vertex 39.03570556640625 578.7999877929688 7.058328628540039
      vertex 38.581581115722656 578.7999877929688 11.259934425354004
      vertex 40.482147216796875 578.7999877929688 11.02916431427002
    endloop
  endfacet
  facet normal 0 1 0
    outer loop
      vertex 42.83683776855469 578.7999877929688 7.519869804382324
      vertex 42.27225875854492 578.7999877929688 11.708064079284668
      vertex 44.544517517089844 578.7999877929688 8.416128158569336
    endloop
  endfacet
  facet normal 0 1 0
    outer loop
      vertex 37.005958557128906 578.7999877929688 12.347508430480957
      vertex 34.01191329956055 578.7999877929688 9.69501781463623
      vertex 32.916351318359375 578.7999877929688 11.282214164733887
    endloop
  endfacet
  facet normal 0 1 0
    outer loop
      vertex 42.27225875854492 578.7999877929688 11.708064079284668
      vertex 42.83683776855469 578.7999877929688 7.519869804382324
      vertex 40.482147216796875 578.7999877929688 11.02916431427002
    endloop
  endfacet
  facet normal 0 1 0
    outer loop
      vertex 37.005958557128906 578.7999877929688 12.347508430480957
      vertex 35.455482482910156 578.7999877929688 8.416128158569336
      vertex 34.01191329956055 578.7999877929688 9.69501781463623
    endloop
  endfacet
  facet normal 0 1 0
    outer loop
      vertex 40.96429443359375 578.7999877929688 7.058328628540039
      vertex 40.482147216796875 578.7999877929688 11.02916431427002
      vertex 42.83683776855469 578.7999877929688 7.519869804382324
    endloop
  endfacet
  facet normal 0 1 0
    outer loop
      vertex 38.581581115722656 578.7999877929688 11.259934425354004
      vertex 37.16316223144531 578.7999877929688 7.519869804382324
      vertex 35.455482482910156 578.7999877929688 8.416128158569336
    endloop
  endfacet
  facet normal 0 1 0
    outer loop
      vertex 39.03570556640625 578.7999877929688 7.058328628540039
      vertex 40.482147216796875 578.7999877929688 11.02916431427002
      vertex 40.96429443359375 578.7999877929688 7.058328628540039
    endloop
  endfacet
  facet normal 0 1 0
    outer loop
      vertex 38.581581115722656 578.7999877929688 11.259934425354004
      vertex 39.03570556640625 578.7999877929688 7.058328628540039
      vertex 37.16316223144531 578.7999877929688 7.519869804382324
    endloop
  endfacet
endsolid OpenSCAD_Model
